<svg width="140" height="38" viewBox="0 0 140 38" fill="none" xmlns="http://www.w3.org/2000/svg">
<g clip-path="url(#clip0_204_33)">
<g clip-path="url(#clip1_204_33)">
<g clip-path="url(#clip2_204_33)">
<path d="M35.871 24.5708C37.4391 24.5708 38.7843 24.0062 39.9067 22.877C41.0456 21.7477 41.6068 20.3861 41.6068 18.7919C41.6068 17.2143 41.0456 15.8609 39.9067 14.7317C38.7843 13.5859 37.4391 13.013 35.871 13.013C34.2864 13.013 32.933 13.5859 31.8105 14.7317C30.6881 15.8609 30.1269 17.2143 30.1269 18.7919C30.1269 20.3861 30.6881 21.7477 31.8105 22.877C32.933 24.0062 34.2864 24.5708 35.871 24.5708ZM35.871 30.3497C32.7019 30.3497 29.9949 29.2205 27.75 26.9621C25.5052 24.7036 24.3828 21.9803 24.3828 18.7919C24.3828 15.6201 25.5052 12.905 27.75 10.6466C29.9949 8.37986 32.7019 7.24231 35.871 7.24231C39.0237 7.24231 41.7224 8.37986 43.9672 10.6466C46.2203 12.905 47.3509 15.6201 47.3509 18.7919C47.3509 21.9803 46.2203 24.7036 43.9672 26.9621C41.7224 29.2205 39.0237 30.3497 35.871 30.3497Z" fill="#FEFEFE"/>
<path d="M48.6953 30.3497V24.5708H60.1752C61.7432 24.5708 63.0885 24.0062 64.2112 22.877C65.3498 21.7477 65.9193 20.3861 65.9193 18.7919C65.9193 17.2143 65.3498 15.8609 64.2112 14.7317C63.0885 13.5859 61.7432 13.013 60.1752 13.013H54.4311V22.2957H48.6953V7.24231H60.1752C63.3279 7.24231 66.0267 8.37986 68.2712 10.6466C70.5329 12.905 71.6632 15.6201 71.6632 18.7919C71.6632 21.9803 70.5329 24.7036 68.2712 26.9621C66.0267 29.2205 63.3279 30.3497 60.1752 30.3497H48.6953Z" fill="#FEFEFE"/>
<path d="M84.5508 21.6813V15.9024H96.0308V21.6813H84.5508ZM84.5508 30.3497C81.3813 30.3497 78.6746 29.2205 76.4295 26.9621C74.1851 24.7036 73.0625 21.9803 73.0625 18.7919C73.0625 15.6201 74.1851 12.905 76.4295 10.6466C78.6746 8.37986 81.3813 7.24231 84.5508 7.24231H96.0308V13.0213H84.5508C82.9661 13.0213 81.6127 13.5859 80.4902 14.7317C79.3676 15.8609 78.807 17.2143 78.807 18.7919C78.807 20.3861 79.3676 21.7477 80.4902 22.877C81.6127 24.0062 82.9661 24.5708 84.5508 24.5708H96.0308V30.3497H84.5508Z" fill="#FEFEFE"/>
<path d="M11.558 30.3497C8.38891 30.3497 5.68191 29.2205 3.44535 26.9621C1.20054 24.7036 0.078125 21.9803 0.078125 18.7919C0.078125 15.6201 1.20054 12.905 3.44535 10.6466C5.68191 8.37986 8.38891 7.24231 11.558 7.24231H27.6431L23.0462 13.0213H11.558C9.97347 13.0213 8.62001 13.5859 7.49758 14.7317C6.38342 15.8609 5.82222 17.2143 5.82222 18.7919C5.82222 20.3861 6.38342 21.7477 7.49758 22.877C8.62001 24.0062 9.97347 24.5708 11.558 24.5708H23.0462L28.1549 30.3497H11.558Z" fill="#FEFEFE"/>
<path d="M99.8086 21.6812H105.527V15.9023H99.8086V21.6812Z" fill="white"/>
<path d="M139.721 37.4325C134.603 37.4325 130.238 35.6141 126.623 31.9691C123 28.3324 121.193 23.9401 121.193 18.7922C121.193 13.6775 123 9.29352 126.623 5.65677C130.238 1.98682 134.603 0.160156 139.721 0.160156V9.47618C137.162 9.47618 134.975 10.3978 133.167 12.2411C131.36 14.0594 130.452 16.2431 130.452 18.7922C130.452 21.3661 131.36 23.5665 133.167 25.3848C134.975 27.2032 137.162 28.1082 139.721 28.1082V37.4325ZM102.664 37.4325V28.1082C105.198 28.1082 107.368 27.2032 109.184 25.3848C111.016 23.5665 111.932 21.3661 111.932 18.7922C111.932 16.2431 111.016 14.0594 109.184 12.2411C107.368 10.3978 105.198 9.47618 102.664 9.47618V0.160156C107.756 0.160156 112.114 1.98682 115.729 5.65677C119.368 9.29352 121.193 13.6775 121.193 18.7922C121.193 23.9401 119.368 28.3324 115.729 31.9691C112.114 35.6141 107.756 37.4325 102.664 37.4325Z" fill="white"/>
<path d="M29.0799 36.7493C29.0716 36.741 29.0634 36.7245 29.0634 36.7079C29.0634 36.6912 29.0716 36.6746 29.0799 36.6497C29.1459 36.4754 29.245 36.1848 29.3935 35.7862C29.5421 35.3793 29.6577 35.039 29.7649 34.7484C29.7732 34.7234 29.7814 34.7068 29.7979 34.6902C29.8145 34.6736 29.8392 34.6736 29.8722 34.6736H30.3096C30.3674 34.6736 30.4087 34.6985 30.4416 34.7484C30.6398 35.3129 30.747 35.6202 30.7718 35.6866C30.7883 35.7281 30.7965 35.7447 30.7965 35.7447C30.8131 35.7447 30.8213 35.7281 30.8296 35.6866C30.8625 35.4458 30.9203 35.1054 30.9864 34.6653C31.0524 34.2252 31.1019 33.9097 31.1349 33.7104C31.1349 33.6856 31.1514 33.669 31.1597 33.6607C31.1762 33.6523 31.1927 33.6523 31.2175 33.6523H31.6631C31.6796 33.6523 31.6961 33.6607 31.7044 33.6856C31.7126 33.7021 31.7126 33.7271 31.7044 33.752L31.1762 36.7079C31.1679 36.7493 31.1432 36.766 31.0936 36.766H30.6232C30.5985 36.766 30.582 36.766 30.5655 36.7577C30.5489 36.7493 30.5407 36.7328 30.5324 36.7079C30.4912 36.5916 30.4252 36.384 30.3344 36.11C30.2436 35.8277 30.1693 35.6119 30.128 35.4624C30.1198 35.4458 30.1198 35.4375 30.1115 35.4375C30.1033 35.4375 30.095 35.4458 30.0868 35.4624L29.6741 36.7079C29.6659 36.7493 29.6411 36.766 29.5916 36.766H29.1129C29.1047 36.766 29.0882 36.766 29.0799 36.7493ZM28.8571 35.7032C28.8488 35.7032 28.8406 35.6949 28.8406 35.6699L28.4692 33.752C28.4609 33.7437 28.4609 33.7354 28.4609 33.7187C28.4609 33.669 28.4774 33.6523 28.5187 33.6523H28.9561C29.0057 33.6523 29.0304 33.669 29.0386 33.7104L29.2284 34.7567C29.2284 34.765 29.2284 34.7732 29.2284 34.7981C29.2284 34.848 29.2284 34.8978 29.212 34.931C29.179 35.0057 29.1294 35.122 29.0551 35.288C28.9809 35.4541 28.9231 35.5869 28.8901 35.6783C28.8818 35.6949 28.8736 35.7032 28.8571 35.7032Z" fill="white"/>
<path d="M34.1615 36.7362C34.145 36.7196 34.1367 36.6947 34.1367 36.6781V33.7471C34.1367 33.7222 34.145 33.7056 34.1615 33.689C34.178 33.6724 34.1945 33.6641 34.2192 33.6641H36.2C36.2248 33.6641 36.2413 33.6724 36.2577 33.689C36.2742 33.7056 36.2826 33.7222 36.2826 33.7471V34.1208C36.2826 34.1373 36.2742 34.1622 36.2577 34.1789C36.2413 34.1955 36.2248 34.2038 36.2 34.2038H34.7722C34.7475 34.2038 34.731 34.2121 34.7144 34.2204C34.6979 34.237 34.6897 34.2536 34.6897 34.2785V34.951C34.6897 34.976 34.6979 34.9926 34.7062 35.0009C34.7227 35.0175 34.7475 35.0175 34.797 35.0175H35.8946C35.9194 35.0175 35.9359 35.0258 35.9524 35.0424C35.9689 35.0507 35.9772 35.0673 35.9772 35.0922V35.4658C35.9772 35.4908 35.9689 35.5074 35.9524 35.5156C35.9359 35.5322 35.9194 35.5406 35.8946 35.5406H34.7887C34.7475 35.5406 34.7227 35.5489 34.7144 35.5738C34.6979 35.5987 34.6897 35.6153 34.6897 35.6402V36.1135C34.6897 36.1384 34.6979 36.1716 34.7144 36.1882C34.731 36.2131 34.764 36.2214 34.8135 36.2214H36.233C36.2495 36.2214 36.266 36.2297 36.2826 36.2463C36.299 36.2629 36.3073 36.2796 36.3073 36.3044V36.6781C36.3073 36.6947 36.299 36.7196 36.2908 36.7362C36.2742 36.7528 36.2495 36.7611 36.233 36.7611H34.2192C34.1945 36.7611 34.178 36.7528 34.1615 36.7362Z" fill="white"/>
<path d="M39.9905 36.2463C40.0978 36.2463 40.1886 36.2131 40.2629 36.1384C40.3372 36.0637 40.3701 35.9723 40.3701 35.8561C40.3701 35.7481 40.3372 35.6568 40.2629 35.5821C40.1886 35.5074 40.0978 35.4742 39.9905 35.4742H39.4045C39.3303 35.4742 39.289 35.5074 39.289 35.5821V36.1384C39.289 36.2131 39.3303 36.2546 39.4045 36.2546L39.9905 36.2463ZM39.7182 34.951C39.8172 34.951 39.908 34.9179 39.9822 34.8431C40.0565 34.7601 40.0896 34.6771 40.0896 34.5691C40.0896 34.4612 40.0483 34.3698 39.974 34.2951C39.8997 34.2204 39.8089 34.1872 39.7099 34.1872H39.3798C39.322 34.1872 39.289 34.2204 39.289 34.3034V34.8431C39.289 34.9179 39.3303 34.951 39.4045 34.951H39.7182ZM38.7773 36.6781V33.7554C38.7773 33.7139 38.7856 33.6973 38.7938 33.6807C38.8103 33.6724 38.8351 33.6641 38.8764 33.6641H39.7099C39.8667 33.6641 40.0153 33.7056 40.1556 33.7886C40.2876 33.8716 40.4032 33.9796 40.4774 34.1125C40.5599 34.2536 40.6012 34.4031 40.6012 34.5691C40.6012 34.7518 40.5517 34.9096 40.4609 35.0507C40.6095 35.142 40.7251 35.2583 40.8076 35.3994C40.8984 35.5406 40.9396 35.69 40.9396 35.8561C40.9396 36.0221 40.8984 36.1716 40.8158 36.3127C40.7416 36.4456 40.6342 36.5619 40.494 36.6366C40.3537 36.7196 40.2051 36.7611 40.04 36.7611L38.8929 36.7694C38.8186 36.7694 38.7773 36.7362 38.7773 36.6781Z" fill="white"/>
<path d="M48.052 36.1794C48.2253 36.1794 48.3904 36.1379 48.5307 36.0466C48.6792 35.9635 48.803 35.8473 48.8855 35.6979C48.9763 35.5484 49.0176 35.3906 49.0176 35.2163C49.0176 35.0419 48.9763 34.8758 48.8855 34.7263C48.803 34.5852 48.6792 34.4607 48.5307 34.3776C48.3904 34.2863 48.2253 34.2448 48.052 34.2448H47.6971C47.6806 34.2448 47.6724 34.2531 47.6641 34.2614C47.6476 34.2697 47.6476 34.2863 47.6476 34.2946V36.1794H48.052ZM47.1112 36.7108C47.0864 36.6859 47.0781 36.661 47.0781 36.6195V33.7715C47.0781 33.7466 47.0864 33.7217 47.1029 33.6968C47.1194 33.6802 47.1442 33.6719 47.1689 33.6719H48.052C48.3326 33.6719 48.5885 33.7383 48.8195 33.8795C49.0506 34.0123 49.2405 34.2033 49.3725 34.444C49.5128 34.6766 49.5788 34.9339 49.5788 35.2163C49.5788 35.4903 49.5128 35.7476 49.3725 35.9885C49.2405 36.2209 49.0506 36.4119 48.8195 36.5447C48.5885 36.6859 48.3326 36.7523 48.052 36.7523H47.2019C47.1689 36.7523 47.1359 36.744 47.1112 36.7108Z" fill="white"/>
<path d="M51.9583 36.7362C51.9418 36.7196 51.9336 36.6947 51.9336 36.6781V33.7471C51.9336 33.7222 51.9418 33.7056 51.9583 33.689C51.9748 33.6724 51.9913 33.6641 52.0078 33.6641H53.9886C54.0133 33.6641 54.0298 33.6724 54.0463 33.689C54.0628 33.7056 54.0711 33.7222 54.0711 33.7471V34.1208C54.0711 34.1373 54.0628 34.1622 54.0463 34.1789C54.0298 34.1955 54.0133 34.2038 53.9886 34.2038H52.5608C52.5443 34.2038 52.5278 34.2121 52.5113 34.2204C52.4947 34.237 52.4865 34.2536 52.4865 34.2785V34.951C52.4865 34.976 52.4865 34.9926 52.503 35.0009C52.5113 35.0175 52.5443 35.0175 52.5855 35.0175H53.6915C53.7079 35.0175 53.7244 35.0258 53.741 35.0424C53.7575 35.0507 53.7657 35.0673 53.7657 35.0922V35.4658C53.7657 35.4908 53.7575 35.5074 53.741 35.5156C53.7244 35.5322 53.7079 35.5406 53.6915 35.5406H52.5773C52.5443 35.5406 52.5195 35.5489 52.503 35.5738C52.4865 35.5987 52.4865 35.6153 52.4865 35.6402V36.1135C52.4865 36.1384 52.4947 36.1716 52.5113 36.1882C52.5278 36.2131 52.5608 36.2214 52.6103 36.2214H54.0216C54.0381 36.2214 54.0628 36.2297 54.0794 36.2463C54.0959 36.2629 54.1041 36.2796 54.1041 36.3044V36.6781C54.1041 36.6947 54.0959 36.7196 54.0794 36.7362C54.0628 36.7528 54.0463 36.7611 54.0216 36.7611H52.0078C51.9913 36.7611 51.9748 36.7528 51.9583 36.7362Z" fill="white"/>
<path d="M58.8721 33.7104C58.8721 33.7271 58.8721 33.7437 58.8639 33.752L58.0633 36.7079C58.055 36.7328 58.0468 36.7493 58.0302 36.7577C58.0137 36.766 57.9973 36.766 57.9643 36.766H57.4195C57.3948 36.766 57.37 36.766 57.3535 36.7577C57.337 36.7493 57.3288 36.7328 57.3205 36.7079L56.52 33.752C56.52 33.7437 56.5117 33.7271 56.5117 33.7104C56.5117 33.669 56.5365 33.6523 56.5695 33.6523H56.9739C57.0069 33.6523 57.0316 33.6523 57.0481 33.6607C57.0647 33.669 57.0729 33.6856 57.0812 33.7104C57.139 33.918 57.2297 34.2668 57.3618 34.74C57.4856 35.2216 57.5846 35.5869 57.6589 35.8444C57.6671 35.9025 57.6836 35.9274 57.6919 35.9274C57.7001 35.9274 57.7167 35.9025 57.7249 35.8444C57.7909 35.5869 57.89 35.2216 58.022 34.74C58.1541 34.2668 58.2448 33.918 58.3026 33.7104C58.3109 33.6856 58.3191 33.669 58.3356 33.6607C58.3521 33.6523 58.3769 33.6523 58.4099 33.6523H58.8143C58.8555 33.6523 58.8721 33.669 58.8721 33.7104Z" fill="white"/>
<path d="M61.3061 36.7362C61.2895 36.7196 61.2812 36.6947 61.2812 36.6781V33.7471C61.2812 33.7222 61.2895 33.7056 61.3061 33.689C61.3225 33.6724 61.339 33.6641 61.3638 33.6641H63.3445C63.3693 33.6641 63.3858 33.6724 63.4023 33.689C63.4188 33.7056 63.427 33.7222 63.427 33.7471V34.1208C63.427 34.1373 63.4188 34.1622 63.4023 34.1789C63.3858 34.1955 63.3693 34.2038 63.3445 34.2038H61.9167C61.892 34.2038 61.8754 34.2121 61.859 34.2204C61.8425 34.237 61.8342 34.2536 61.8342 34.2785V34.951C61.8342 34.976 61.8425 34.9926 61.8507 35.0009C61.8672 35.0175 61.892 35.0175 61.9415 35.0175H63.0392C63.0639 35.0175 63.0804 35.0258 63.0969 35.0424C63.1135 35.0507 63.1217 35.0673 63.1217 35.0922V35.4658C63.1217 35.4908 63.1135 35.5074 63.0969 35.5156C63.0804 35.5322 63.0639 35.5406 63.0392 35.5406H61.9332C61.892 35.5406 61.8672 35.5489 61.859 35.5738C61.8425 35.5987 61.8342 35.6153 61.8342 35.6402V36.1135C61.8342 36.1384 61.8425 36.1716 61.859 36.1882C61.8754 36.2131 61.9085 36.2214 61.958 36.2214H63.3775C63.394 36.2214 63.4105 36.2297 63.427 36.2463C63.4436 36.2629 63.4518 36.2796 63.4518 36.3044V36.6781C63.4518 36.6947 63.4436 36.7196 63.4353 36.7362C63.4188 36.7528 63.394 36.7611 63.3775 36.7611H61.3638C61.339 36.7611 61.3225 36.7528 61.3061 36.7362Z" fill="white"/>
<path d="M66.0254 36.741C66.0005 36.7245 65.9922 36.6996 65.9922 36.6746V33.7437C65.9922 33.7187 66.0005 33.7021 66.0254 33.6773C66.0421 33.6607 66.0663 33.6523 66.083 33.6523H66.5452C66.5701 33.6523 66.5867 33.6607 66.611 33.6773C66.6276 33.7021 66.6359 33.7187 66.6359 33.7437V36.0851C66.6359 36.11 66.6442 36.135 66.6609 36.1515C66.6775 36.1681 66.7018 36.1848 66.7184 36.1848H67.7917C67.816 36.1848 67.841 36.1931 67.8576 36.2097C67.8742 36.2263 67.8825 36.2429 67.8825 36.2678V36.6746C67.8825 36.6996 67.8742 36.7245 67.8576 36.741C67.841 36.7577 67.816 36.766 67.7917 36.766H66.083C66.0663 36.766 66.0421 36.7577 66.0254 36.741Z" fill="white"/>
<path d="M72.2421 35.8871C72.3163 35.7957 72.3745 35.7127 72.4154 35.6296C72.4736 35.4885 72.4978 35.3473 72.4978 35.2062C72.4978 35.0153 72.4486 34.8325 72.3412 34.6582C72.2338 34.4921 72.0938 34.3593 71.904 34.2763C71.7716 34.2182 71.6316 34.1932 71.4827 34.1932C71.351 34.1932 71.227 34.2099 71.1113 34.2596C70.9962 34.3095 70.8888 34.3759 70.7897 34.4672L70.7156 34.5502C70.6331 34.6499 70.5749 34.7495 70.534 34.8658C70.4925 34.982 70.4758 35.0983 70.4758 35.2145C70.4758 35.364 70.5091 35.5051 70.5666 35.6379C70.6331 35.7791 70.7239 35.8954 70.8389 35.9867C71.0288 36.1528 71.2519 36.2275 71.491 36.2275C71.6559 36.2275 71.8049 36.1943 71.9449 36.1278C72.0606 36.0614 72.1597 35.9784 72.2421 35.8871ZM70.3192 36.2856C70.1709 36.1195 70.0635 35.9369 69.9977 35.7293L69.9894 35.7127C69.9312 35.5466 69.9062 35.3806 69.9062 35.2145C69.9062 35.0318 69.9395 34.8492 69.9977 34.6748C70.0635 34.4922 70.1543 34.3344 70.2777 34.1849C70.4432 34.0106 70.5999 33.8777 70.7731 33.7864C70.938 33.6867 71.1445 33.637 71.4002 33.6203H71.4168C71.6642 33.6037 71.904 33.6535 72.1347 33.7531C72.2837 33.8196 72.432 33.9193 72.5643 34.0438C72.7043 34.1683 72.8034 34.2929 72.861 34.4174C73.0016 34.6582 73.0674 34.9239 73.0674 35.2062C73.0674 35.3723 73.0425 35.5383 72.9933 35.6961C72.9434 35.8538 72.8693 36.0033 72.7785 36.1361C72.7043 36.2441 72.6219 36.3354 72.5311 36.4101C72.4486 36.4932 72.3412 36.5596 72.2172 36.6343C71.9864 36.7506 71.739 36.8087 71.4827 36.8087C71.2602 36.8087 71.0454 36.7589 70.8389 36.6676C70.6331 36.5762 70.4592 36.4434 70.3192 36.2856Z" fill="white"/>
<path d="M76.5591 35.059C76.6748 35.059 76.7739 35.0175 76.8563 34.9427C76.9305 34.8597 76.972 34.7601 76.972 34.6438C76.972 34.5359 76.9305 34.4362 76.8563 34.3532C76.7739 34.2785 76.6748 34.237 76.5591 34.237H76.1135C76.0476 34.237 76.0061 34.2702 76.0061 34.3284V35.059H76.5591ZM75.4781 36.7445C75.4614 36.7279 75.4531 36.7113 75.4531 36.6947V33.7471C75.4531 33.7222 75.4614 33.6973 75.4781 33.689C75.4947 33.6724 75.5107 33.6641 75.5356 33.6641H76.5591C76.7406 33.6641 76.9055 33.7056 77.0545 33.7969C77.2028 33.88 77.3185 34.0045 77.4093 34.1539C77.5001 34.3034 77.541 34.4695 77.541 34.6438C77.541 34.8265 77.5001 34.9926 77.4093 35.142C77.3185 35.2915 77.2028 35.4077 77.0545 35.4991C76.9055 35.5821 76.7406 35.6319 76.5591 35.6319H76.1218C76.0886 35.6319 76.056 35.6319 76.0393 35.6485C76.0227 35.6651 76.0061 35.6817 76.0061 35.7149V36.6947C76.0061 36.7113 76.0061 36.7279 75.9895 36.7445C75.9729 36.7611 75.9569 36.7694 75.9319 36.7694H75.5356C75.5107 36.7694 75.4947 36.7611 75.4781 36.7445Z" fill="white"/>
<path d="M79.9619 36.7445C79.9453 36.7279 79.9453 36.7113 79.9453 36.6947V33.7471C79.9453 33.7222 79.9453 33.7056 79.9619 33.689C79.9786 33.6724 79.9952 33.6641 80.0195 33.6641H80.4491C80.4817 33.6641 80.4983 33.6807 80.5149 33.7056L81.1919 34.8265C81.1919 34.8348 81.1996 34.8431 81.2162 34.8514C81.2245 34.868 81.2411 34.8763 81.266 34.8763H81.2744C81.2903 34.8763 81.307 34.868 81.3153 34.8514C81.3319 34.8431 81.3319 34.8265 81.3402 34.8265L82.0089 33.7139C82.0249 33.6807 82.0498 33.6641 82.0747 33.6641H82.512C82.5369 33.6641 82.5535 33.6724 82.5701 33.689C82.5778 33.7056 82.5861 33.7222 82.5861 33.7471V36.6947C82.5861 36.7113 82.5778 36.7279 82.5701 36.7445C82.5535 36.7611 82.5369 36.7694 82.512 36.7694H82.083C82.0581 36.7694 82.0415 36.7611 82.0249 36.7528C82.0089 36.7362 82.0006 36.7113 82.0006 36.6947V34.9261C82.0006 34.8929 81.9923 34.8846 81.9839 34.8846C81.9756 34.8846 81.959 34.8929 81.9424 34.9179L81.4802 35.5821C81.4559 35.6153 81.431 35.6402 81.4144 35.6568C81.3894 35.6651 81.3568 35.6734 81.3153 35.6734H81.2411C81.1836 35.6734 81.142 35.6651 81.1254 35.6568C81.1011 35.6485 81.0845 35.6319 81.0596 35.5987L80.5807 34.9179C80.5641 34.8929 80.5481 34.8846 80.5398 34.8846C80.5315 34.8846 80.5232 34.8929 80.5232 34.9179V36.6947C80.5232 36.7113 80.5149 36.7279 80.5066 36.7445C80.49 36.7611 80.4734 36.7694 80.4491 36.7694H80.0195C79.9952 36.7694 79.9786 36.7611 79.9619 36.7445Z" fill="white"/>
<path d="M85.1493 36.7362C85.1333 36.7196 85.125 36.6947 85.125 36.6781V33.7471C85.125 33.7222 85.1333 33.7056 85.1493 33.689C85.1659 33.6724 85.1825 33.6641 85.1992 33.6641H87.1796C87.2045 33.6641 87.2212 33.6724 87.2378 33.689C87.2538 33.7056 87.2621 33.7222 87.2621 33.7471V34.1208C87.2621 34.1373 87.2538 34.1622 87.2378 34.1789C87.2212 34.1955 87.2045 34.2038 87.1796 34.2038H85.7521C85.7355 34.2038 85.7189 34.2121 85.7023 34.2204C85.6863 34.237 85.678 34.2536 85.678 34.2785V34.951C85.678 34.976 85.678 34.9926 85.6939 35.0009C85.7023 35.0175 85.7355 35.0175 85.7771 35.0175H86.8824C86.899 35.0175 86.9156 35.0258 86.9322 35.0424C86.9488 35.0507 86.9571 35.0673 86.9571 35.0922V35.4658C86.9571 35.4908 86.9488 35.5074 86.9322 35.5156C86.9156 35.5322 86.899 35.5406 86.8824 35.5406H85.7687C85.7355 35.5406 85.7106 35.5489 85.6939 35.5738C85.678 35.5987 85.678 35.6153 85.678 35.6402V36.1135C85.678 36.1384 85.6863 36.1716 85.7023 36.1882C85.7189 36.2131 85.7521 36.2214 85.8013 36.2214H87.2129C87.2295 36.2214 87.2538 36.2297 87.2704 36.2463C87.287 36.2629 87.2953 36.2796 87.2953 36.3044V36.6781C87.2953 36.6947 87.287 36.7196 87.2704 36.7362C87.2538 36.7528 87.2378 36.7611 87.2129 36.7611H85.1992C85.1825 36.7611 85.1659 36.7528 85.1493 36.7362Z" fill="white"/>
<path d="M89.7554 36.7445C89.7388 36.7362 89.7305 36.7196 89.7305 36.703V33.7222C89.7305 33.7056 89.7388 33.689 89.7554 33.6807C89.7637 33.6724 89.7803 33.6641 89.797 33.6641H90.2508C90.2675 33.6641 90.2834 33.6724 90.3001 33.6973L91.3485 35.4742C91.3811 35.5322 91.406 35.5655 91.4226 35.5655C91.4475 35.5655 91.4642 35.5322 91.4642 35.4658L91.4475 33.7222C91.4475 33.7056 91.4559 33.689 91.4718 33.6807C91.4801 33.6724 91.4968 33.6641 91.5217 33.6641H91.9839C92.0005 33.6641 92.0171 33.6724 92.0248 33.6807C92.0414 33.689 92.0497 33.7056 92.0497 33.7222V36.703C92.0497 36.7196 92.0414 36.7362 92.0248 36.7445C92.0171 36.7528 92.0005 36.7611 91.9839 36.7611H91.67C91.6125 36.7611 91.5792 36.7611 91.5549 36.7528C91.5383 36.7445 91.5134 36.7196 91.4885 36.6781L90.3742 34.8929C90.3582 34.868 90.3416 34.8514 90.3333 34.8514C90.3084 34.8514 90.2918 34.8763 90.2918 34.9179L90.3001 36.703C90.3001 36.7196 90.2918 36.7362 90.2834 36.7445C90.2675 36.7528 90.2591 36.7611 90.2425 36.7611H89.797C89.7803 36.7611 89.7637 36.7528 89.7554 36.7445Z" fill="white"/>
<path d="M95.4088 36.7528C95.4004 36.7445 95.3921 36.7279 95.3921 36.7113V34.3034C95.3921 34.2785 95.3838 34.2536 95.3589 34.2287C95.3423 34.2121 95.3097 34.1955 95.2847 34.1955H94.5419C94.5253 34.1955 94.517 34.1955 94.5087 34.1789C94.4927 34.1706 94.4844 34.1539 94.4844 34.1456V33.7139C94.4844 33.6973 94.4927 33.689 94.5004 33.6724C94.517 33.6641 94.5253 33.6641 94.5419 33.6641H96.8778C96.8938 33.6641 96.9104 33.6724 96.9187 33.6807C96.927 33.689 96.9353 33.7056 96.9353 33.7222V34.1373C96.9353 34.1539 96.927 34.1706 96.9187 34.1789C96.9104 34.1955 96.8938 34.1955 96.8778 34.1955H96.1433C96.11 34.1955 96.0851 34.2038 96.0685 34.2287C96.0442 34.2453 96.0359 34.2702 96.0359 34.3034V36.7113C96.0359 36.7279 96.0276 36.7445 96.0193 36.7528C96.011 36.7611 95.9943 36.7694 95.9777 36.7694H95.4497C95.4331 36.7694 95.4164 36.7611 95.4088 36.7528Z" fill="white"/>
</g>
</g>
</g>
<defs>
<clipPath id="clip0_204_33">
<rect width="140" height="38" fill="white"/>
</clipPath>
<clipPath id="clip1_204_33">
<rect width="140" height="38" fill="white"/>
</clipPath>
<clipPath id="clip2_204_33">
<rect width="140" height="38" fill="white"/>
</clipPath>
</defs>
</svg>
