<svg width="509" height="56" viewBox="0 0 509 56" fill="none" xmlns="http://www.w3.org/2000/svg">
<rect width="509" height="56" rx="18" fill="white"/>
<path d="M37.9907 39H34.4972L24.049 27.2902V39H21.1377V15.9039H24.049V27.0961L34.2384 15.9039H37.5379L27.5101 27.1285L37.9907 39ZM55.8195 30.2985C55.8195 31.7434 55.6254 33.0265 55.2372 34.1479C54.8706 35.2477 54.3315 36.1858 53.6198 36.9621C52.9298 37.7385 52.0779 38.3315 51.0644 38.7412C50.0724 39.1294 48.9618 39.3235 47.7326 39.3235C46.5897 39.3235 45.533 39.1294 44.5626 38.7412C43.5921 38.3315 42.7511 37.7385 42.0395 36.9621C41.3278 36.1858 40.7671 35.2477 40.3574 34.1479C39.9692 33.0265 39.7751 31.7434 39.7751 30.2985C39.7751 28.3793 40.0986 26.7619 40.7456 25.4464C41.3925 24.1094 42.3198 23.0958 43.5274 22.4058C44.7351 21.6941 46.1691 21.3383 47.8296 21.3383C49.4039 21.3383 50.784 21.6941 51.9701 22.4058C53.1778 23.0958 54.1158 24.1094 54.7843 25.4464C55.4744 26.7619 55.8195 28.3793 55.8195 30.2985ZM42.7187 30.2985C42.7187 31.6571 42.8913 32.8432 43.2363 33.8568C43.6029 34.8487 44.1636 35.6143 44.9184 36.1534C45.6731 36.6925 46.6328 36.9621 47.7973 36.9621C48.9618 36.9621 49.9214 36.6925 50.6762 36.1534C51.431 35.6143 51.9809 34.8487 52.3259 33.8568C52.6925 32.8432 52.8758 31.6571 52.8758 30.2985C52.8758 28.9184 52.6925 27.7431 52.3259 26.7727C51.9593 25.8022 51.3986 25.0583 50.6439 24.5407C49.9107 24.0016 48.951 23.732 47.7649 23.732C45.9966 23.732 44.7135 24.3143 43.9156 25.4788C43.1177 26.6433 42.7187 28.2499 42.7187 30.2985ZM78.9307 21.6618V39H76.3752V27.9372C76.3752 27.4843 76.386 27.0099 76.4076 26.5139C76.4507 26.0179 76.4939 25.5327 76.537 25.0583H76.4399L70.7791 39H68.3854L62.8864 25.0583H62.7893C62.8324 25.5327 62.854 26.0179 62.854 26.5139C62.8756 27.0099 62.8864 27.5167 62.8864 28.0342V39H60.3309V21.6618H64.1156L69.5823 35.6035L75.146 21.6618H78.9307ZM99.1185 21.6618V39H96.2719V24.0878H87.3117V39H84.4651V21.6618H99.1185ZM111.217 21.3706C113.331 21.3706 114.894 21.8343 115.908 22.7616C116.921 23.6889 117.428 25.1661 117.428 27.1932V39H115.358L114.808 36.5416H114.678C114.182 37.167 113.665 37.6953 113.126 38.1266C112.608 38.5364 112.004 38.8383 111.314 39.0323C110.646 39.2264 109.826 39.3235 108.856 39.3235C107.821 39.3235 106.883 39.1402 106.042 38.7736C105.222 38.407 104.575 37.8463 104.101 37.0915C103.626 36.3152 103.389 35.3447 103.389 34.1802C103.389 32.455 104.068 31.1288 105.427 30.2015C106.786 29.2526 108.877 28.7351 111.702 28.6488L114.646 28.5518V27.5167C114.646 26.0718 114.333 25.069 113.708 24.5083C113.083 23.9477 112.198 23.6673 111.055 23.6673C110.15 23.6673 109.287 23.8075 108.468 24.0878C107.648 24.3466 106.883 24.6485 106.171 24.9936L105.298 22.8586C106.052 22.4489 106.947 22.1039 107.982 21.8235C109.018 21.5216 110.096 21.3706 111.217 21.3706ZM112.058 30.622C109.902 30.7083 108.403 31.0533 107.562 31.6571C106.742 32.261 106.333 33.1128 106.333 34.2126C106.333 35.183 106.624 35.8946 107.206 36.3475C107.81 36.8004 108.576 37.0268 109.503 37.0268C110.969 37.0268 112.188 36.6279 113.158 35.83C114.128 35.0105 114.614 33.7597 114.614 32.0776V30.525L112.058 30.622ZM125.63 21.6618V28.8753H135.043V21.6618H137.889V39H135.043V31.269H125.63V39H122.783V21.6618H125.63ZM146.064 32.2394C146.064 32.4335 146.053 32.7138 146.032 33.0804C146.032 33.4255 146.021 33.8028 145.999 34.2126C145.978 34.6007 145.956 34.9781 145.935 35.3447C145.913 35.6898 145.891 35.9701 145.87 36.1858L155.154 21.6618H158.647V39H155.995V28.7782C155.995 28.4332 155.995 27.9803 155.995 27.4196C156.016 26.8589 156.038 26.309 156.059 25.7699C156.081 25.2092 156.102 24.7887 156.124 24.5083L146.905 39H143.379V21.6618H146.064V32.2394ZM165.232 39H161.933L166.882 31.7218C166.214 31.5493 165.567 31.2797 164.941 30.9131C164.316 30.525 163.809 29.9966 163.421 29.3281C163.033 28.638 162.839 27.7862 162.839 26.7727C162.839 25.1122 163.399 23.8506 164.521 22.988C165.642 22.1039 167.13 21.6618 168.985 21.6618H176.748V39H173.902V32.11H169.696L165.232 39ZM165.588 26.805C165.588 27.797 165.955 28.541 166.688 29.037C167.443 29.5114 168.489 29.7486 169.826 29.7486H173.902V24.0231H169.276C167.96 24.0231 167.011 24.2819 166.429 24.7995C165.869 25.317 165.588 25.9855 165.588 26.805ZM182.816 39.1294C182.816 39.1294 182.805 39.1402 182.784 39.1617H182.752C182.32 39.1617 181.954 39.0216 181.652 38.7412C181.371 38.4393 181.22 38.0727 181.199 37.6414C181.199 37.3179 181.274 37.016 181.425 36.7357C181.706 36.2181 182.159 35.9593 182.784 35.9593C183.323 35.9593 183.765 36.175 184.11 36.6063C184.455 37.0376 184.628 37.5983 184.628 38.2884C184.628 39.8626 183.916 41.4692 182.493 43.1081H181.878L181.102 42.4935C181.555 41.9113 181.954 41.2535 182.299 40.5203C182.536 40.0675 182.708 39.6038 182.816 39.1294ZM208.906 26.0287C208.906 27.1069 208.583 27.948 207.936 28.5518C207.289 29.1556 206.459 29.5653 205.445 29.781V29.9104C206.523 30.0613 207.461 30.4495 208.259 31.0749C209.057 31.6787 209.456 32.6276 209.456 33.9215C209.456 34.6547 209.316 35.334 209.036 35.9593C208.777 36.5847 208.367 37.1238 207.806 37.5767C207.246 38.0296 206.523 38.3854 205.639 38.6442C204.755 38.8814 203.688 39 202.437 39H194.964V21.6618H202.404C203.634 21.6618 204.733 21.8019 205.704 22.0823C206.696 22.3411 207.472 22.7939 208.033 23.4409C208.615 24.0663 208.906 24.9289 208.906 26.0287ZM206.513 33.9215C206.513 32.9295 206.135 32.2178 205.38 31.7865C204.626 31.3552 203.515 31.1396 202.049 31.1396H197.811V36.7033H202.113C203.537 36.7033 204.626 36.4985 205.38 36.0887C206.135 35.6574 206.513 34.935 206.513 33.9215ZM206.027 26.3845C206.027 25.565 205.725 24.972 205.122 24.6054C204.539 24.2172 203.58 24.0231 202.243 24.0231H197.811V28.7782H201.725C203.127 28.7782 204.194 28.5841 204.927 28.196C205.661 27.8078 206.027 27.204 206.027 26.3845ZM229.795 21.6618H232.9L225.493 30.0074L233.515 39H230.216L222.388 30.2015V39H219.541V21.6618H222.388V30.0721L229.795 21.6618ZM251.104 30.2985C251.104 31.7434 250.91 33.0265 250.522 34.1479C250.156 35.2477 249.616 36.1858 248.905 36.9621C248.215 37.7385 247.363 38.3315 246.349 38.7412C245.357 39.1294 244.247 39.3235 243.018 39.3235C241.875 39.3235 240.818 39.1294 239.848 38.7412C238.877 38.3315 238.036 37.7385 237.324 36.9621C236.613 36.1858 236.052 35.2477 235.642 34.1479C235.254 33.0265 235.06 31.7434 235.06 30.2985C235.06 28.3793 235.384 26.7619 236.031 25.4464C236.678 24.1094 237.605 23.0958 238.812 22.4058C240.02 21.6941 241.454 21.3383 243.115 21.3383C244.689 21.3383 246.069 21.6941 247.255 22.4058C248.463 23.0958 249.401 24.1094 250.069 25.4464C250.759 26.7619 251.104 28.3793 251.104 30.2985ZM238.004 30.2985C238.004 31.6571 238.176 32.8432 238.521 33.8568C238.888 34.8487 239.449 35.6143 240.203 36.1534C240.958 36.6925 241.918 36.9621 243.082 36.9621C244.247 36.9621 245.206 36.6925 245.961 36.1534C246.716 35.6143 247.266 34.8487 247.611 33.8568C247.978 32.8432 248.161 31.6571 248.161 30.2985C248.161 28.9184 247.978 27.7431 247.611 26.7727C247.244 25.8022 246.684 25.0583 245.929 24.5407C245.196 24.0016 244.236 23.732 243.05 23.732C241.282 23.732 239.999 24.3143 239.201 25.4788C238.403 26.6433 238.004 28.2499 238.004 30.2985ZM267.269 24.0555H261.608V39H258.794V24.0555H253.197V21.6618H267.269V24.0555ZM285.442 30.2985C285.442 31.7434 285.248 33.0265 284.86 34.1479C284.493 35.2477 283.954 36.1858 283.242 36.9621C282.552 37.7385 281.701 38.3315 280.687 38.7412C279.695 39.1294 278.584 39.3235 277.355 39.3235C276.212 39.3235 275.156 39.1294 274.185 38.7412C273.215 38.3315 272.374 37.7385 271.662 36.9621C270.95 36.1858 270.39 35.2477 269.98 34.1479C269.592 33.0265 269.398 31.7434 269.398 30.2985C269.398 28.3793 269.721 26.7619 270.368 25.4464C271.015 24.1094 271.942 23.0958 273.15 22.4058C274.358 21.6941 275.792 21.3383 277.452 21.3383C279.026 21.3383 280.407 21.6941 281.593 22.4058C282.8 23.0958 283.738 24.1094 284.407 25.4464C285.097 26.7619 285.442 28.3793 285.442 30.2985ZM272.341 30.2985C272.341 31.6571 272.514 32.8432 272.859 33.8568C273.225 34.8487 273.786 35.6143 274.541 36.1534C275.296 36.6925 276.255 36.9621 277.42 36.9621C278.584 36.9621 279.544 36.6925 280.299 36.1534C281.054 35.6143 281.603 34.8487 281.949 33.8568C282.315 32.8432 282.498 31.6571 282.498 30.2985C282.498 28.9184 282.315 27.7431 281.949 26.7727C281.582 25.8022 281.021 25.0583 280.266 24.5407C279.533 24.0016 278.574 23.732 277.388 23.732C275.619 23.732 274.336 24.3143 273.538 25.4788C272.74 26.6433 272.341 28.2499 272.341 30.2985ZM298.202 21.3383C300.337 21.3383 302.051 22.0823 303.345 23.5703C304.661 25.0583 305.319 27.301 305.319 30.2985C305.319 32.261 305.017 33.9215 304.413 35.28C303.831 36.6171 303 37.6306 301.922 38.3207C300.865 38.9892 299.615 39.3235 298.17 39.3235C297.286 39.3235 296.498 39.2049 295.808 38.9677C295.118 38.7304 294.525 38.4285 294.029 38.0619C293.555 37.6738 293.145 37.2532 292.8 36.8004H292.606C292.649 37.167 292.692 37.6306 292.735 38.1913C292.778 38.752 292.8 39.2372 292.8 39.6469V46.7634H289.953V21.6618H292.282L292.671 24.0231H292.8C293.145 23.5271 293.555 23.0743 294.029 22.6645C294.525 22.2548 295.108 21.9313 295.776 21.6941C296.466 21.4569 297.275 21.3383 298.202 21.3383ZM297.685 23.732C296.52 23.732 295.582 23.9584 294.87 24.4113C294.159 24.8426 293.641 25.5003 293.318 26.3845C292.994 27.2687 292.822 28.39 292.8 29.7486V30.2985C292.8 31.7218 292.951 32.9295 293.253 33.9215C293.555 34.9134 294.062 35.6682 294.773 36.1858C295.506 36.7033 296.498 36.9621 297.749 36.9621C298.806 36.9621 299.668 36.671 300.337 36.0887C301.027 35.5065 301.534 34.7194 301.857 33.7274C302.202 32.7138 302.375 31.5601 302.375 30.2662C302.375 28.2822 301.987 26.6972 301.21 25.5111C300.456 24.325 299.28 23.732 297.685 23.732ZM324.929 30.2985C324.929 31.7434 324.735 33.0265 324.346 34.1479C323.98 35.2477 323.441 36.1858 322.729 36.9621C322.039 37.7385 321.187 38.3315 320.174 38.7412C319.182 39.1294 318.071 39.3235 316.842 39.3235C315.699 39.3235 314.642 39.1294 313.672 38.7412C312.701 38.3315 311.86 37.7385 311.149 36.9621C310.437 36.1858 309.876 35.2477 309.467 34.1479C309.078 33.0265 308.884 31.7434 308.884 30.2985C308.884 28.3793 309.208 26.7619 309.855 25.4464C310.502 24.1094 311.429 23.0958 312.637 22.4058C313.844 21.6941 315.278 21.3383 316.939 21.3383C318.513 21.3383 319.893 21.6941 321.079 22.4058C322.287 23.0958 323.225 24.1094 323.894 25.4464C324.584 26.7619 324.929 28.3793 324.929 30.2985ZM311.828 30.2985C311.828 31.6571 312 32.8432 312.345 33.8568C312.712 34.8487 313.273 35.6143 314.028 36.1534C314.782 36.6925 315.742 36.9621 316.906 36.9621C318.071 36.9621 319.031 36.6925 319.785 36.1534C320.54 35.6143 321.09 34.8487 321.435 33.8568C321.802 32.8432 321.985 31.6571 321.985 30.2985C321.985 28.9184 321.802 27.7431 321.435 26.7727C321.069 25.8022 320.508 25.0583 319.753 24.5407C319.02 24.0016 318.06 23.732 316.874 23.732C315.106 23.732 313.823 24.3143 313.025 25.4788C312.227 26.6433 311.828 28.2499 311.828 30.2985ZM343.479 14.4806C343.393 15.5589 343.123 16.4646 342.67 17.1978C342.239 17.931 341.592 18.4809 340.729 18.8475C339.867 19.2142 338.745 19.3975 337.365 19.3975C335.963 19.3975 334.831 19.2142 333.969 18.8475C333.128 18.4809 332.513 17.9418 332.125 17.2302C331.737 16.497 331.5 15.5805 331.413 14.4806H334.066C334.174 15.6452 334.476 16.4323 334.971 16.842C335.489 17.2302 336.309 17.4243 337.43 17.4243C338.422 17.4243 339.198 17.2194 339.759 16.8097C340.341 16.3784 340.686 15.602 340.794 14.4806H343.479ZM332.125 32.2394C332.125 32.4335 332.114 32.7138 332.093 33.0804C332.093 33.4255 332.082 33.8028 332.06 34.2126C332.039 34.6007 332.017 34.9781 331.996 35.3447C331.974 35.6898 331.952 35.9701 331.931 36.1858L341.215 21.6618H344.708V39H342.056V28.7782C342.056 28.4332 342.056 27.9803 342.056 27.4196C342.077 26.8589 342.099 26.309 342.12 25.7699C342.142 25.2092 342.163 24.7887 342.185 24.5083L332.966 39H329.44V21.6618H332.125V32.2394ZM364.413 21.3383C366.548 21.3383 368.263 22.0823 369.556 23.5703C370.872 25.0583 371.53 27.301 371.53 30.2985C371.53 32.261 371.228 33.9215 370.624 35.28C370.042 36.6171 369.211 37.6306 368.133 38.3207C367.077 38.9892 365.826 39.3235 364.381 39.3235C363.497 39.3235 362.71 39.2049 362.02 38.9677C361.329 38.7304 360.736 38.4285 360.24 38.0619C359.766 37.6738 359.356 37.2532 359.011 36.8004H358.817C358.86 37.167 358.903 37.6306 358.947 38.1913C358.99 38.752 359.011 39.2372 359.011 39.6469V46.7634H356.165V21.6618H358.494L358.882 24.0231H359.011C359.356 23.5271 359.766 23.0743 360.24 22.6645C360.736 22.2548 361.319 21.9313 361.987 21.6941C362.677 21.4569 363.486 21.3383 364.413 21.3383ZM363.896 23.732C362.731 23.732 361.793 23.9584 361.081 24.4113C360.37 24.8426 359.852 25.5003 359.529 26.3845C359.205 27.2687 359.033 28.39 359.011 29.7486V30.2985C359.011 31.7218 359.162 32.9295 359.464 33.9215C359.766 34.9134 360.273 35.6682 360.984 36.1858C361.718 36.7033 362.71 36.9621 363.96 36.9621C365.017 36.9621 365.88 36.671 366.548 36.0887C367.238 35.5065 367.745 34.7194 368.068 33.7274C368.414 32.7138 368.586 31.5601 368.586 30.2662C368.586 28.2822 368.198 26.6972 367.422 25.5111C366.667 24.325 365.491 23.732 363.896 23.732ZM382.632 21.3706C384.746 21.3706 386.309 21.8343 387.323 22.7616C388.336 23.6889 388.843 25.1661 388.843 27.1932V39H386.773L386.223 36.5416H386.094C385.598 37.167 385.08 37.6953 384.541 38.1266C384.023 38.5364 383.42 38.8383 382.729 39.0323C382.061 39.2264 381.241 39.3235 380.271 39.3235C379.236 39.3235 378.298 39.1402 377.457 38.7736C376.637 38.407 375.99 37.8463 375.516 37.0915C375.042 36.3152 374.804 35.3447 374.804 34.1802C374.804 32.455 375.484 31.1288 376.842 30.2015C378.201 29.2526 380.293 28.7351 383.118 28.6488L386.061 28.5518V27.5167C386.061 26.0718 385.749 25.069 385.123 24.5083C384.498 23.9477 383.614 23.6673 382.471 23.6673C381.565 23.6673 380.702 23.8075 379.883 24.0878C379.063 24.3466 378.298 24.6485 377.586 24.9936L376.713 22.8586C377.468 22.4489 378.363 22.1039 379.398 21.8235C380.433 21.5216 381.511 21.3706 382.632 21.3706ZM383.473 30.622C381.317 30.7083 379.818 31.0533 378.977 31.6571C378.158 32.261 377.748 33.1128 377.748 34.2126C377.748 35.183 378.039 35.8946 378.621 36.3475C379.225 36.8004 379.991 37.0268 380.918 37.0268C382.384 37.0268 383.603 36.6279 384.573 35.83C385.544 35.0105 386.029 33.7597 386.029 32.0776V30.525L383.473 30.622ZM393.292 28.5841C393.292 26.061 393.54 23.9153 394.036 22.147C394.554 20.3571 395.341 18.9338 396.398 17.8771C397.476 16.7989 398.856 16.0765 400.538 15.7098C401.94 15.4079 403.309 15.1384 404.646 14.9012C405.983 14.6639 407.234 14.4483 408.399 14.2542L408.884 16.745C408.323 16.8312 407.698 16.939 407.008 17.0684C406.318 17.1763 405.617 17.2949 404.905 17.4243C404.193 17.5321 403.503 17.6507 402.835 17.7801C402.188 17.8879 401.616 17.9957 401.12 18.1036C400.409 18.2545 399.773 18.5133 399.212 18.8799C398.651 19.2249 398.166 19.6994 397.756 20.3032C397.368 20.907 397.055 21.651 396.818 22.5352C396.581 23.4193 396.441 24.4652 396.398 25.6729H396.592C396.894 25.2631 397.303 24.8426 397.821 24.4113C398.36 23.98 398.996 23.6134 399.73 23.3115C400.484 23.0096 401.336 22.8586 402.285 22.8586C403.795 22.8586 405.045 23.1929 406.037 23.8614C407.051 24.5083 407.806 25.4141 408.302 26.5786C408.819 27.7431 409.078 29.1017 409.078 30.6544C409.078 32.5736 408.744 34.1802 408.075 35.4741C407.407 36.768 406.479 37.7384 405.293 38.3854C404.107 39.0108 402.727 39.3235 401.153 39.3235C399.967 39.3235 398.889 39.097 397.918 38.6442C396.948 38.1697 396.117 37.4797 395.427 36.5739C394.737 35.6682 394.209 34.5468 393.842 33.2098C393.476 31.8728 393.292 30.3309 393.292 28.5841ZM401.379 36.9621C402.328 36.9621 403.148 36.768 403.838 36.3799C404.549 35.9917 405.099 35.3555 405.487 34.4714C405.876 33.5872 406.07 32.4119 406.07 30.9455C406.07 29.1772 405.735 27.7862 405.067 26.7727C404.42 25.7376 403.342 25.22 401.832 25.22C400.883 25.22 400.021 25.4356 399.244 25.8669C398.468 26.2767 397.821 26.7511 397.303 27.2902C396.786 27.8294 396.419 28.2822 396.204 28.6488C396.204 29.7055 396.279 30.7298 396.43 31.7218C396.581 32.7138 396.84 33.6088 397.206 34.4067C397.595 35.183 398.123 35.8084 398.791 36.2828C399.482 36.7357 400.344 36.9621 401.379 36.9621ZM428.636 30.2985C428.636 31.7434 428.442 33.0265 428.054 34.1479C427.687 35.2477 427.148 36.1858 426.437 36.9621C425.747 37.7385 424.895 38.3315 423.881 38.7412C422.889 39.1294 421.779 39.3235 420.549 39.3235C419.406 39.3235 418.35 39.1294 417.379 38.7412C416.409 38.3315 415.568 37.7385 414.856 36.9621C414.145 36.1858 413.584 35.2477 413.174 34.1479C412.786 33.0265 412.592 31.7434 412.592 30.2985C412.592 28.3793 412.915 26.7619 413.562 25.4464C414.209 24.1094 415.137 23.0958 416.344 22.4058C417.552 21.6941 418.986 21.3383 420.646 21.3383C422.221 21.3383 423.601 21.6941 424.787 22.4058C425.995 23.0958 426.933 24.1094 427.601 25.4464C428.291 26.7619 428.636 28.3793 428.636 30.2985ZM415.536 30.2985C415.536 31.6571 415.708 32.8432 416.053 33.8568C416.42 34.8487 416.98 35.6143 417.735 36.1534C418.49 36.6925 419.45 36.9621 420.614 36.9621C421.779 36.9621 422.738 36.6925 423.493 36.1534C424.248 35.6143 424.798 34.8487 425.143 33.8568C425.509 32.8432 425.693 31.6571 425.693 30.2985C425.693 28.9184 425.509 27.7431 425.143 26.7727C424.776 25.8022 424.215 25.0583 423.461 24.5407C422.727 24.0016 421.768 23.732 420.582 23.732C418.813 23.732 417.53 24.3143 416.732 25.4788C415.935 26.6433 415.536 28.2499 415.536 30.2985ZM444.8 24.0555H439.14V39H436.325V24.0555H430.729V21.6618H444.8V24.0555ZM454.782 21.3706C456.896 21.3706 458.459 21.8343 459.473 22.7616C460.486 23.6889 460.993 25.1661 460.993 27.1932V39H458.923L458.373 36.5416H458.244C457.748 37.167 457.23 37.6953 456.691 38.1266C456.173 38.5364 455.569 38.8383 454.879 39.0323C454.211 39.2264 453.391 39.3235 452.421 39.3235C451.386 39.3235 450.448 39.1402 449.607 38.7736C448.787 38.407 448.14 37.8463 447.666 37.0915C447.192 36.3152 446.954 35.3447 446.954 34.1802C446.954 32.455 447.634 31.1288 448.992 30.2015C450.351 29.2526 452.443 28.7351 455.268 28.6488L458.211 28.5518V27.5167C458.211 26.0718 457.899 25.069 457.273 24.5083C456.648 23.9477 455.764 23.6673 454.621 23.6673C453.715 23.6673 452.852 23.8075 452.033 24.0878C451.213 24.3466 450.448 24.6485 449.736 24.9936L448.863 22.8586C449.618 22.4489 450.513 22.1039 451.548 21.8235C452.583 21.5216 453.661 21.3706 454.782 21.3706ZM455.623 30.622C453.467 30.7083 451.968 31.0533 451.127 31.6571C450.308 32.261 449.898 33.1128 449.898 34.2126C449.898 35.183 450.189 35.8946 450.771 36.3475C451.375 36.8004 452.141 37.0268 453.068 37.0268C454.534 37.0268 455.753 36.6279 456.723 35.83C457.694 35.0105 458.179 33.7597 458.179 32.0776V30.525L455.623 30.622ZM488.862 30.2985C488.862 32.2178 488.549 33.8568 487.924 35.2153C487.298 36.5524 486.414 37.5767 485.271 38.2884C484.128 38.9784 482.77 39.3235 481.196 39.3235C479.729 39.3235 478.446 39.0216 477.346 38.4177C476.246 37.7924 475.373 36.8866 474.726 35.7006C474.079 34.4929 473.702 33.0157 473.594 31.269H469.195V39H466.348V21.6618H469.195V28.8753H473.626C473.777 27.2363 474.176 25.8669 474.823 24.7671C475.492 23.6458 476.365 22.7939 477.443 22.2117C478.543 21.6294 479.815 21.3383 481.26 21.3383C482.748 21.3383 484.064 21.6941 485.207 22.4058C486.35 23.0958 487.245 24.1094 487.891 25.4464C488.538 26.7619 488.862 28.3793 488.862 30.2985ZM476.505 30.2985C476.505 31.7434 476.667 32.9618 476.99 33.9538C477.335 34.9458 477.853 35.7006 478.543 36.2181C479.233 36.7141 480.128 36.9621 481.228 36.9621C482.328 36.9621 483.223 36.7141 483.913 36.2181C484.603 35.7006 485.11 34.9458 485.433 33.9538C485.757 32.9618 485.918 31.7434 485.918 30.2985C485.918 28.8537 485.757 27.646 485.433 26.6756C485.11 25.7052 484.603 24.972 483.913 24.476C483.223 23.98 482.328 23.732 481.228 23.732C480.128 23.732 479.233 23.98 478.543 24.476C477.853 24.972 477.335 25.7052 476.99 26.6756C476.667 27.646 476.505 28.8537 476.505 30.2985Z" fill="black"/>
</svg>
