<svg width="133" height="31" viewBox="0 0 133 31" fill="none" xmlns="http://www.w3.org/2000/svg">
<path d="M13.1003 11.3863H10.189C10.1028 9.72581 8.99219 8.89556 6.85726 8.89556C5.75744 8.89556 4.88406 9.11121 4.23711 9.54251C3.61173 9.95224 3.29904 10.5129 3.29904 11.2246C3.29904 12.3028 4.32337 13.0792 6.37204 13.5536L8.92749 14.1358C10.588 14.524 11.7848 15.0739 12.5181 15.7856C13.2513 16.4972 13.6179 17.4676 13.6179 18.6968C13.6179 20.2711 13.0033 21.5218 11.7741 22.4491C10.5449 23.3549 8.88436 23.8077 6.79256 23.8077C4.50668 23.8077 2.7707 23.2686 1.58462 22.1904C0.592635 21.3062 0.064294 20.1309 -0.000400914 18.6645H3.00791C3.18043 19.4193 3.41764 19.9692 3.71955 20.3142C4.30181 21.0043 5.39084 21.3493 6.98665 21.3493C8.17272 21.3493 9.11079 21.1337 9.80087 20.7024C10.5125 20.2495 10.8683 19.6565 10.8683 18.9233C10.8683 17.8235 10.0165 17.0687 8.31289 16.6589L5.82214 16.0767C3.92442 15.6238 2.59818 15.0847 1.8434 14.4593C0.980805 13.7477 0.549506 12.7233 0.549506 11.3863C0.549506 9.87676 1.12098 8.67991 2.26392 7.79574C3.42843 6.91158 4.9811 6.4695 6.92195 6.4695C8.94906 6.4695 10.5233 6.97628 11.6447 7.98983C12.6151 8.87399 13.1003 10.0062 13.1003 11.3863ZM24.0082 23.4519H21.1293L15.2744 6.82532H18.2827L22.682 20.2819L27.4047 6.82532H30.3807L24.0082 23.4519ZM43.1971 6.82532H46.0436L38.6361 26.9454C37.7735 29.2313 36.3394 30.3743 34.3339 30.3743C33.385 30.3743 32.5548 30.1586 31.8431 29.7273L32.3607 27.4306C32.8998 27.6463 33.4281 27.7541 33.9457 27.7541C34.9808 27.7541 35.7032 27.215 36.113 26.1367L37.1158 23.4843L31.4873 6.82532H34.3339L38.5714 19.7643L43.1971 6.82532ZM63.7122 21.2199V23.3549C62.979 23.6136 62.4075 23.743 61.9978 23.743C60.2726 23.743 59.3345 22.9559 59.1835 21.3817C57.9975 22.999 56.1105 23.8077 53.5227 23.8077C51.7328 23.8077 50.3419 23.3117 49.3499 22.3197C48.4873 21.4571 48.056 20.3466 48.056 18.988C48.056 17.4353 48.6059 16.2384 49.7057 15.3974C50.3311 14.923 51.6358 14.4593 53.6198 14.0065L59.0541 12.7773L59.0865 11.3863C59.0865 9.72581 57.8357 8.89556 55.3342 8.89556C52.9405 8.89556 51.6574 9.86598 51.4848 11.8068H48.8C48.8647 10.3404 49.2313 9.21903 49.8998 8.44269C51.0428 7.12723 52.8973 6.4695 55.4636 6.4695C59.6256 6.4695 61.7066 7.97905 61.7066 10.9981V20.2819C61.7066 21.1013 62.0625 21.5111 62.7741 21.5111C62.8604 21.5111 63.0868 21.4464 63.4534 21.317C63.5828 21.2738 63.669 21.2415 63.7122 21.2199ZM59.0865 14.9445L54.8166 16.0443C53.2855 16.4325 52.2288 16.8315 51.6466 17.2412C51.0859 17.6509 50.8055 18.2224 50.8055 18.9556C50.8055 20.6592 51.9054 21.5111 54.105 21.5111C55.6577 21.5111 56.9731 21.0043 58.0514 19.9907C58.7414 19.3653 59.0865 18.6537 59.0865 17.8558V14.9445ZM73.122 6.82532V8.96025H69.7255V20.0231C69.7255 20.4112 69.8549 20.7455 70.1137 21.0258C70.394 21.2846 70.7498 21.414 71.1811 21.414C71.5909 21.414 72.2163 21.317 73.0573 21.1229L73.3484 23.4519C72.0114 23.6891 70.9978 23.8077 70.3078 23.8077C68.1728 23.8077 67.1054 22.9343 67.1054 21.1876V8.96025H64.841V6.82532H67.1054V3.42884L69.7255 2.23199V6.82532H73.122ZM83.2427 0.29114V22.2227L81.8518 23.4519H80.4932V3.59058L76.4821 6.95471L75.0264 5.14325L80.7843 0.29114H83.2427ZM87.6248 1.97321C89.6519 0.657744 91.7005 1.31524e-05 93.7708 1.31524e-05C95.7979 1.31524e-05 97.3182 0.59305 98.3318 1.77912C99.2159 2.81424 99.658 4.1944 99.658 5.91959C99.658 7.27819 99.313 8.60443 98.6229 9.89833C97.9975 10.9981 96.8977 12.4861 95.3235 14.3623L90.7625 19.5379L89.4362 21.1552H100.046V22.061L98.914 23.4519H86.5249V21.1229L88.9834 18.1793L93.9649 12.3891C94.9568 11.203 95.6577 10.211 96.0674 9.41312C96.6281 8.33487 96.9085 7.28897 96.9085 6.27542C96.9085 5.15404 96.5742 4.24831 95.9057 3.55823C95.2372 2.86815 94.3422 2.52311 93.2209 2.52311C91.9054 2.52311 90.536 3.02989 89.1127 4.04344L87.6248 1.97321ZM104.006 0.646961C105.408 0.215663 106.551 1.31524e-05 107.435 1.31524e-05C109.592 1.31524e-05 111.317 0.560702 112.611 1.68208C113.84 2.76033 114.454 4.20518 114.454 6.01664C114.454 9.05729 113.107 10.8795 110.411 11.4834C111.964 11.7421 113.182 12.3999 114.066 13.4565C114.972 14.5132 115.425 15.8179 115.425 17.3706C115.425 19.6133 114.551 21.317 112.805 22.4815C111.468 23.3656 109.796 23.8077 107.791 23.8077C106.497 23.8077 105.203 23.6244 103.909 23.2578L102.874 21.9639V20.9612C104.362 21.2846 105.667 21.4464 106.788 21.4464C110.691 21.4464 112.643 20.1309 112.643 17.5C112.643 16.0767 112.05 14.8798 110.864 13.9094C110.195 13.3703 109.484 13.0037 108.729 12.8096C107.996 12.5939 106.907 12.4753 105.462 12.4538V10.3512H108.211C109.246 10.3512 110.088 10.0169 110.734 9.34842C111.403 8.65834 111.737 7.77418 111.737 6.69593C111.737 5.4236 111.317 4.42083 110.476 3.68762C109.635 2.93285 108.492 2.55546 107.047 2.55546C106.335 2.55546 105.322 2.69563 104.006 2.97598V0.646961ZM129.419 0.29114V15.3327H132.847V17.8235H129.419V22.2227L128.028 23.4519H126.669V17.8235H117.191V15.3974L126.443 0.29114H129.419ZM126.669 3.91405L119.909 15.3327H126.669V3.91405Z" fill="white"/>
</svg>
