<svg width="170" height="56" viewBox="0 0 170 56" fill="none" xmlns="http://www.w3.org/2000/svg">
<rect width="170" height="56" rx="18" fill="white"/>
<path d="M41.2902 27.4196C41.2902 29.2095 41.0637 30.8377 40.6109 32.3041C40.158 33.7489 39.4787 34.9997 38.573 36.0564C37.6888 37.1131 36.5782 37.9218 35.2412 38.4824C33.9257 39.0431 32.3946 39.3235 30.6478 39.3235C28.8364 39.3235 27.2621 39.0431 25.9251 38.4824C24.5881 37.9002 23.4775 37.0915 22.5933 36.0564C21.7092 34.9997 21.0514 33.7382 20.6201 32.2717C20.1888 30.8053 19.9732 29.1772 19.9732 27.3873C19.9732 25.0151 20.3614 22.9449 21.1377 21.1766C21.914 19.4082 23.0893 18.0281 24.6636 17.0361C26.2594 16.0441 28.2649 15.5481 30.6802 15.5481C32.9876 15.5481 34.9285 16.0441 36.5027 17.0361C38.077 18.0065 39.263 19.3867 40.061 21.1766C40.8804 22.9449 41.2902 25.0259 41.2902 27.4196ZM23.0462 27.4196C23.0462 29.3605 23.3158 31.0317 23.8549 32.4335C24.394 33.8352 25.2243 34.9134 26.3456 35.6682C27.4886 36.423 28.9227 36.8004 30.6478 36.8004C32.3946 36.8004 33.8179 36.423 34.9177 35.6682C36.0391 34.9134 36.8693 33.8352 37.4085 32.4335C37.9476 31.0317 38.2171 29.3605 38.2171 27.4196C38.2171 24.5083 37.6133 22.2332 36.4057 20.5943C35.1981 18.9338 33.2896 18.1036 30.6802 18.1036C28.9334 18.1036 27.4886 18.4809 26.3456 19.2357C25.2243 19.9689 24.394 21.0364 23.8549 22.4381C23.3158 23.8183 23.0462 25.4788 23.0462 27.4196ZM45.1152 28.5841C45.1152 26.061 45.3632 23.9153 45.8592 22.147C46.3768 20.3571 47.1639 18.9338 48.2206 17.8771C49.2988 16.7989 50.679 16.0765 52.3611 15.7098C53.7628 15.4079 55.1322 15.1384 56.4692 14.9012C57.8062 14.6639 59.057 14.4483 60.2215 14.2542L60.7067 16.745C60.146 16.8312 59.5206 16.939 58.8306 17.0684C58.1405 17.1763 57.4396 17.2949 56.728 17.4243C56.0163 17.5321 55.3262 17.6507 54.6577 17.7801C54.0108 17.8879 53.4393 17.9957 52.9433 18.1036C52.2317 18.2545 51.5955 18.5133 51.0348 18.8799C50.4741 19.2249 49.9889 19.6994 49.5792 20.3032C49.191 20.907 48.8783 21.651 48.6411 22.5352C48.4039 23.4193 48.2637 24.4652 48.2206 25.6729H48.4147C48.7166 25.2631 49.1263 24.8426 49.6439 24.4113C50.183 23.98 50.8192 23.6134 51.5524 23.3115C52.3072 23.0096 53.159 22.8586 54.1078 22.8586C55.6174 22.8586 56.8681 23.1929 57.8601 23.8614C58.8737 24.5083 59.6285 25.4141 60.1244 26.5786C60.642 27.7431 60.9008 29.1017 60.9008 30.6544C60.9008 32.5736 60.5665 34.1802 59.898 35.4741C59.2295 36.768 58.3022 37.7384 57.1161 38.3854C55.9301 39.0108 54.5499 39.3235 52.9757 39.3235C51.7896 39.3235 50.7113 39.097 49.7409 38.6442C48.7705 38.1697 47.9402 37.4797 47.2502 36.5739C46.5601 35.6682 46.0317 34.5468 45.6651 33.2098C45.2985 31.8728 45.1152 30.3309 45.1152 28.5841ZM53.2021 36.9621C54.151 36.9621 54.9704 36.768 55.6605 36.3799C56.3721 35.9917 56.9221 35.3555 57.3102 34.4714C57.6984 33.5872 57.8925 32.4119 57.8925 30.9455C57.8925 29.1772 57.5582 27.7862 56.8897 26.7727C56.2428 25.7376 55.1645 25.22 53.655 25.22C52.7061 25.22 51.8435 25.4356 51.0672 25.8669C50.2908 26.2767 49.6439 26.7511 49.1263 27.2902C48.6088 27.8294 48.2422 28.2822 48.0265 28.6488C48.0265 29.7055 48.102 30.7298 48.2529 31.7218C48.4039 32.7138 48.6627 33.6088 49.0293 34.4067C49.4174 35.183 49.9458 35.8084 50.6143 36.2828C51.3044 36.7357 52.167 36.9621 53.2021 36.9621ZM80.4591 30.2985C80.4591 31.7434 80.265 33.0265 79.8769 34.1479C79.5102 35.2477 78.9711 36.1858 78.2595 36.9621C77.5694 37.7385 76.7176 38.3315 75.704 38.7412C74.712 39.1294 73.6015 39.3235 72.3722 39.3235C71.2293 39.3235 70.1726 39.1294 69.2022 38.7412C68.2318 38.3315 67.3907 37.7385 66.6791 36.9621C65.9675 36.1858 65.4068 35.2477 64.997 34.1479C64.6089 33.0265 64.4148 31.7434 64.4148 30.2985C64.4148 28.3793 64.7383 26.7619 65.3852 25.4464C66.0322 24.1094 66.9594 23.0958 68.1671 22.4058C69.3747 21.6941 70.8088 21.3383 72.4693 21.3383C74.0435 21.3383 75.4237 21.6941 76.6098 22.4058C77.8174 23.0958 78.7555 24.1094 79.424 25.4464C80.1141 26.7619 80.4591 28.3793 80.4591 30.2985ZM67.3584 30.2985C67.3584 31.6571 67.5309 32.8432 67.876 33.8568C68.2426 34.8487 68.8032 35.6143 69.558 36.1534C70.3128 36.6925 71.2724 36.9621 72.4369 36.9621C73.6015 36.9621 74.5611 36.6925 75.3159 36.1534C76.0706 35.6143 76.6205 34.8487 76.9656 33.8568C77.3322 32.8432 77.5155 31.6571 77.5155 30.2985C77.5155 28.9184 77.3322 27.7431 76.9656 26.7727C76.599 25.8022 76.0383 25.0583 75.2835 24.5407C74.5503 24.0016 73.5907 23.732 72.4046 23.732C70.6363 23.732 69.3532 24.3143 68.5553 25.4788C67.7573 26.6433 67.3584 28.2499 67.3584 30.2985ZM109.509 21.6618V39H106.954V27.9372C106.954 27.4843 106.964 27.0099 106.986 26.5139C107.029 26.0179 107.072 25.5327 107.115 25.0583H107.018L101.358 39H98.9639L93.4648 25.0583H93.3678C93.4109 25.5327 93.4325 26.0179 93.4325 26.5139C93.454 27.0099 93.4648 27.5167 93.4648 28.0342V39H90.9094V21.6618H94.694L100.161 35.6035L105.724 21.6618H109.509ZM117.89 21.6618V28.8753H127.303V21.6618H130.15V39H127.303V31.269H117.89V39H115.044V21.6618H117.89ZM142.336 21.3383C143.824 21.3383 145.096 21.6618 146.153 22.3087C147.231 22.9557 148.05 23.8722 148.611 25.0583C149.193 26.2228 149.484 27.5921 149.484 29.1664V30.8808H137.613C137.656 32.8432 138.152 34.342 139.101 35.3771C140.071 36.3906 141.419 36.8974 143.144 36.8974C144.244 36.8974 145.215 36.8004 146.056 36.6063C146.918 36.3906 147.802 36.0887 148.708 35.7006V38.1913C147.824 38.5795 146.951 38.8598 146.088 39.0323C145.225 39.2264 144.201 39.3235 143.015 39.3235C141.376 39.3235 139.92 38.9892 138.648 38.3207C137.397 37.6522 136.416 36.6602 135.704 35.3447C135.014 34.0077 134.669 32.3796 134.669 30.4603C134.669 28.5626 134.982 26.9344 135.607 25.5758C136.254 24.2172 137.149 23.1713 138.292 22.4381C139.457 21.7049 140.805 21.3383 142.336 21.3383ZM142.303 23.6673C140.945 23.6673 139.867 24.1094 139.069 24.9936C138.292 25.8562 137.829 27.0638 137.678 28.6165H146.509C146.509 27.6245 146.358 26.7619 146.056 26.0287C145.754 25.2955 145.29 24.724 144.665 24.3143C144.061 23.883 143.274 23.6673 142.303 23.6673Z" fill="black"/>
</svg>
