<svg width="466" height="56" viewBox="0 0 466 56" fill="none" xmlns="http://www.w3.org/2000/svg">
<rect width="466" height="56" rx="18" fill="white"/>
<path d="M28.4482 39H25.537V18.4594H18.3235V15.9039H35.6294V18.4594H28.4482V39ZM43.1453 21.3383C44.6333 21.3383 45.9056 21.6618 46.9623 22.3087C48.0406 22.9557 48.86 23.8722 49.4207 25.0583C50.003 26.2228 50.2941 27.5921 50.2941 29.1664V30.8808H38.4226C38.4657 32.8432 38.9617 34.342 39.9106 35.3771C40.881 36.3906 42.2288 36.8974 43.954 36.8974C45.0538 36.8974 46.0243 36.8004 46.8653 36.6063C47.7279 36.3906 48.612 36.0887 49.5178 35.7006V38.1913C48.6336 38.5795 47.7602 38.8598 46.8976 39.0323C46.035 39.2264 45.0107 39.3235 43.8246 39.3235C42.1857 39.3235 40.7301 38.9892 39.4577 38.3207C38.207 37.6522 37.2257 36.6602 36.5141 35.3447C35.824 34.0077 35.479 32.3796 35.479 30.4603C35.479 28.5626 35.7917 26.9344 36.4171 25.5758C37.064 24.2172 37.959 23.1713 39.1019 22.4381C40.2664 21.7049 41.6142 21.3383 43.1453 21.3383ZM43.113 23.6673C41.7544 23.6673 40.6761 24.1094 39.8782 24.9936C39.1019 25.8562 38.6383 27.0638 38.4873 28.6165H47.3181C47.3181 27.6245 47.1672 26.7619 46.8653 26.0287C46.5634 25.2955 46.0997 24.724 45.4743 24.3143C44.8705 23.883 44.0834 23.6673 43.113 23.6673ZM58.8161 30.1368L52.8319 21.6618H56.0666L60.5306 28.196L64.9622 21.6618H68.1646L62.1803 30.1368L68.488 39H65.2533L60.5306 32.0776L55.7431 39H52.5407L58.8161 30.1368ZM74.676 21.6618V28.8753H84.0891V21.6618H86.9357V39H84.0891V31.269H74.676V39H71.8294V21.6618H74.676ZM107.5 30.2985C107.5 31.7434 107.305 33.0265 106.917 34.1479C106.551 35.2477 106.012 36.1858 105.3 36.9621C104.61 37.7385 103.758 38.3315 102.744 38.7412C101.752 39.1294 100.642 39.3235 99.4127 39.3235C98.2697 39.3235 97.2131 39.1294 96.2426 38.7412C95.2722 38.3315 94.4312 37.7385 93.7195 36.9621C93.0079 36.1858 92.4472 35.2477 92.0375 34.1479C91.6493 33.0265 91.4552 31.7434 91.4552 30.2985C91.4552 28.3793 91.7787 26.7619 92.4256 25.4464C93.0726 24.1094 93.9999 23.0958 95.2075 22.4058C96.4152 21.6941 97.8492 21.3383 99.5097 21.3383C101.084 21.3383 102.464 21.6941 103.65 22.4058C104.858 23.0958 105.796 24.1094 106.464 25.4464C107.154 26.7619 107.5 28.3793 107.5 30.2985ZM94.3988 30.2985C94.3988 31.6571 94.5713 32.8432 94.9164 33.8568C95.283 34.8487 95.8437 35.6143 96.5985 36.1534C97.3532 36.6925 98.3129 36.9621 99.4774 36.9621C100.642 36.9621 101.602 36.6925 102.356 36.1534C103.111 35.6143 103.661 34.8487 104.006 33.8568C104.373 32.8432 104.556 31.6571 104.556 30.2985C104.556 28.9184 104.373 27.7431 104.006 26.7727C103.639 25.8022 103.079 25.0583 102.324 24.5407C101.591 24.0016 100.631 23.732 99.445 23.732C97.6767 23.732 96.3936 24.3143 95.5957 25.4788C94.7978 26.6433 94.3988 28.2499 94.3988 30.2985ZM125.209 39H122.33V24.0231H117.219C117.003 26.7619 116.734 29.1017 116.41 31.0425C116.087 32.9618 115.677 34.5253 115.181 35.7329C114.685 36.9405 114.092 37.8247 113.402 38.3854C112.712 38.9461 111.903 39.2264 110.976 39.2264C110.696 39.2264 110.415 39.2049 110.135 39.1617C109.876 39.1402 109.66 39.0863 109.488 39V36.8651C109.617 36.9082 109.757 36.9405 109.908 36.9621C110.059 36.9837 110.21 36.9945 110.361 36.9945C110.836 36.9945 111.267 36.8004 111.655 36.4122C112.043 36.024 112.388 35.431 112.69 34.6331C113.014 33.8352 113.305 32.8324 113.564 31.6248C113.822 30.3956 114.049 28.9507 114.243 27.2902C114.437 25.6297 114.61 23.7536 114.761 21.6618H125.209V39ZM145.786 30.2985C145.786 31.7434 145.592 33.0265 145.204 34.1479C144.837 35.2477 144.298 36.1858 143.586 36.9621C142.896 37.7385 142.044 38.3315 141.031 38.7412C140.039 39.1294 138.928 39.3235 137.699 39.3235C136.556 39.3235 135.499 39.1294 134.529 38.7412C133.558 38.3315 132.717 37.7385 132.006 36.9621C131.294 36.1858 130.733 35.2477 130.324 34.1479C129.936 33.0265 129.741 31.7434 129.741 30.2985C129.741 28.3793 130.065 26.7619 130.712 25.4464C131.359 24.1094 132.286 23.0958 133.494 22.4058C134.701 21.6941 136.135 21.3383 137.796 21.3383C139.37 21.3383 140.75 21.6941 141.936 22.4058C143.144 23.0958 144.082 24.1094 144.751 25.4464C145.441 26.7619 145.786 28.3793 145.786 30.2985ZM132.685 30.2985C132.685 31.6571 132.858 32.8432 133.203 33.8568C133.569 34.8487 134.13 35.6143 134.885 36.1534C135.639 36.6925 136.599 36.9621 137.764 36.9621C138.928 36.9621 139.888 36.6925 140.643 36.1534C141.397 35.6143 141.947 34.8487 142.292 33.8568C142.659 32.8432 142.842 31.6571 142.842 30.2985C142.842 28.9184 142.659 27.7431 142.292 26.7727C141.926 25.8022 141.365 25.0583 140.61 24.5407C139.877 24.0016 138.917 23.732 137.731 23.732C135.963 23.732 134.68 24.3143 133.882 25.4788C133.084 26.6433 132.685 28.2499 132.685 30.2985ZM160.875 21.6618V24.0555H153.144V39H150.297V21.6618H160.875ZM166.976 32.2394C166.976 32.4335 166.965 32.7138 166.944 33.0804C166.944 33.4255 166.933 33.8028 166.911 34.2126C166.89 34.6007 166.868 34.9781 166.847 35.3447C166.825 35.6898 166.804 35.9701 166.782 36.1858L176.066 21.6618H179.559V39H176.907V28.7782C176.907 28.4332 176.907 27.9803 176.907 27.4196C176.928 26.8589 176.95 26.309 176.971 25.7699C176.993 25.2092 177.015 24.7887 177.036 24.5083L167.817 39H164.291V21.6618H166.976V32.2394ZM187.762 32.2394C187.762 32.4335 187.751 32.7138 187.73 33.0804C187.73 33.4255 187.719 33.8028 187.697 34.2126C187.676 34.6007 187.654 34.9781 187.632 35.3447C187.611 35.6898 187.589 35.9701 187.568 36.1858L196.851 21.6618H200.345V39H197.693V28.7782C197.693 28.4332 197.693 27.9803 197.693 27.4196C197.714 26.8589 197.736 26.309 197.757 25.7699C197.779 25.2092 197.8 24.7887 197.822 24.5083L188.603 39H185.077V21.6618H187.762V32.2394ZM214.486 32.2394C214.486 32.4335 214.476 32.7138 214.454 33.0804C214.454 33.4255 214.443 33.8028 214.422 34.2126C214.4 34.6007 214.379 34.9781 214.357 35.3447C214.335 35.6898 214.314 35.9701 214.292 36.1858L223.576 21.6618H227.07V39H224.417V28.7782C224.417 28.4332 224.417 27.9803 224.417 27.4196C224.439 26.8589 224.46 26.309 224.482 25.7699C224.503 25.2092 224.525 24.7887 224.546 24.5083L215.327 39H211.802V21.6618H214.486V32.2394ZM241.211 32.2394C241.211 32.4335 241.2 32.7138 241.179 33.0804C241.179 33.4255 241.168 33.8028 241.146 34.2126C241.125 34.6007 241.103 34.9781 241.082 35.3447C241.06 35.6898 241.038 35.9701 241.017 36.1858L250.301 21.6618H253.794V39H251.142V28.7782C251.142 28.4332 251.142 27.9803 251.142 27.4196C251.163 26.8589 251.185 26.309 251.206 25.7699C251.228 25.2092 251.249 24.7887 251.271 24.5083L242.052 39H238.526V21.6618H241.211V32.2394ZM262.158 21.6618V28.8753H271.572V21.6618H274.418V39H271.572V31.269H262.158V39H259.312V21.6618H262.158ZM286.863 39.3235C285.332 39.3235 283.962 39.0108 282.755 38.3854C281.569 37.76 280.63 36.7896 279.94 35.4741C279.272 34.1587 278.938 32.4766 278.938 30.4279C278.938 28.293 279.293 26.557 280.005 25.22C280.717 23.883 281.676 22.9018 282.884 22.2764C284.113 21.651 285.504 21.3383 287.057 21.3383C287.941 21.3383 288.793 21.4353 289.612 21.6294C290.432 21.8019 291.1 22.0176 291.618 22.2764L290.744 24.6377C290.227 24.4437 289.623 24.2604 288.933 24.0878C288.243 23.9153 287.596 23.8291 286.992 23.8291C285.828 23.8291 284.868 24.077 284.113 24.573C283.358 25.069 282.798 25.8022 282.431 26.7727C282.065 27.7431 281.881 28.9507 281.881 30.3956C281.881 31.7757 282.065 32.951 282.431 33.9215C282.798 34.8919 283.348 35.6251 284.081 36.1211C284.814 36.6171 285.731 36.8651 286.83 36.8651C287.779 36.8651 288.61 36.768 289.321 36.5739C290.054 36.3799 290.723 36.1426 291.327 35.8623V38.3854C290.744 38.6873 290.098 38.9137 289.386 39.0647C288.696 39.2372 287.855 39.3235 286.863 39.3235ZM307.419 24.0555H301.758V39H298.944V24.0555H293.347V21.6618H307.419V24.0555ZM319.083 21.3383C321.218 21.3383 322.932 22.0823 324.226 23.5703C325.541 25.0583 326.199 27.301 326.199 30.2985C326.199 32.261 325.897 33.9215 325.293 35.28C324.711 36.6171 323.881 37.6306 322.803 38.3207C321.746 38.9892 320.495 39.3235 319.05 39.3235C318.166 39.3235 317.379 39.2049 316.689 38.9677C315.999 38.7304 315.406 38.4285 314.91 38.0619C314.435 37.6738 314.026 37.2532 313.681 36.8004H313.486C313.53 37.167 313.573 37.6306 313.616 38.1913C313.659 38.752 313.681 39.2372 313.681 39.6469V46.7634H310.834V21.6618H313.163L313.551 24.0231H313.681C314.026 23.5271 314.435 23.0743 314.91 22.6645C315.406 22.2548 315.988 21.9313 316.657 21.6941C317.347 21.4569 318.155 21.3383 319.083 21.3383ZM318.565 23.732C317.401 23.732 316.462 23.9584 315.751 24.4113C315.039 24.8426 314.522 25.5003 314.198 26.3845C313.875 27.2687 313.702 28.39 313.681 29.7486V30.2985C313.681 31.7218 313.832 32.9295 314.133 33.9215C314.435 34.9134 314.942 35.6682 315.654 36.1858C316.387 36.7033 317.379 36.9621 318.63 36.9621C319.686 36.9621 320.549 36.671 321.218 36.0887C321.908 35.5065 322.414 34.7194 322.738 33.7274C323.083 32.7138 323.255 31.5601 323.255 30.2662C323.255 28.2822 322.867 26.6972 322.091 25.5111C321.336 24.325 320.161 23.732 318.565 23.732ZM327.702 21.6618H330.743L334.495 31.5277C334.711 32.11 334.905 32.6707 335.077 33.2098C335.271 33.7489 335.444 34.2773 335.595 34.7948C335.746 35.2908 335.865 35.776 335.951 36.2505H336.08C336.21 35.7113 336.414 35.0105 336.695 34.1479C336.975 33.2637 337.266 32.3796 337.568 31.4954L341.094 21.6618H344.167L336.695 41.3937C336.285 42.472 335.8 43.41 335.239 44.2079C334.7 45.0274 334.031 45.6528 333.234 46.0841C332.457 46.537 331.508 46.7634 330.387 46.7634C329.869 46.7634 329.417 46.731 329.028 46.6663C328.64 46.6232 328.306 46.5693 328.026 46.5046V44.2403C328.263 44.2834 328.543 44.3265 328.867 44.3697C329.212 44.4128 329.568 44.4344 329.934 44.4344C330.603 44.4344 331.174 44.305 331.649 44.0462C332.145 43.809 332.565 43.4532 332.91 42.9787C333.255 42.5259 333.546 41.9867 333.783 41.3614L334.689 39.0647L327.702 21.6618ZM365.509 21.6618V39H362.953V27.9372C362.953 27.4843 362.964 27.0099 362.986 26.5139C363.029 26.0179 363.072 25.5327 363.115 25.0583H363.018L357.357 39H354.963L349.464 25.0583H349.367C349.411 25.5327 349.432 26.0179 349.432 26.5139C349.454 27.0099 349.464 27.5167 349.464 28.0342V39H346.909V21.6618H350.694L356.16 35.6035L361.724 21.6618H365.509ZM377.739 21.3383C379.227 21.3383 380.499 21.6618 381.556 22.3087C382.634 22.9557 383.454 23.8722 384.015 25.0583C384.597 26.2228 384.888 27.5921 384.888 29.1664V30.8808H373.016C373.06 32.8432 373.556 34.342 374.504 35.3771C375.475 36.3906 376.823 36.8974 378.548 36.8974C379.648 36.8974 380.618 36.8004 381.459 36.6063C382.322 36.3906 383.206 36.0887 384.112 35.7006V38.1913C383.227 38.5795 382.354 38.8598 381.491 39.0323C380.629 39.2264 379.604 39.3235 378.418 39.3235C376.779 39.3235 375.324 38.9892 374.052 38.3207C372.801 37.6522 371.82 36.6602 371.108 35.3447C370.418 34.0077 370.073 32.3796 370.073 30.4603C370.073 28.5626 370.385 26.9344 371.011 25.5758C371.658 24.2172 372.553 23.1713 373.696 22.4381C374.86 21.7049 376.208 21.3383 377.739 21.3383ZM377.707 23.6673C376.348 23.6673 375.27 24.1094 374.472 24.9936C373.696 25.8562 373.232 27.0638 373.081 28.6165H381.912C381.912 27.6245 381.761 26.7619 381.459 26.0287C381.157 25.2955 380.694 24.724 380.068 24.3143C379.464 23.883 378.677 23.6673 377.707 23.6673ZM392.148 21.6618V28.8753H401.561V21.6618H404.408V39H401.561V31.269H392.148V39H389.302V21.6618H392.148ZM421.867 24.0555H416.206V39H413.392V24.0555H407.795V21.6618H421.867V24.0555ZM425.282 39V21.6618H428.129V28.7782H432.625C434.134 28.7782 435.374 28.9615 436.345 29.3281C437.315 29.6947 438.038 30.2446 438.512 30.9778C438.987 31.6895 439.224 32.5952 439.224 33.695C439.224 34.7733 438.987 35.7113 438.512 36.5092C438.059 37.3072 437.337 37.9218 436.345 38.3531C435.374 38.7844 434.091 39 432.495 39H425.282ZM432.237 36.7033C433.466 36.7033 434.469 36.4985 435.245 36.0887C436.021 35.6574 436.41 34.9134 436.41 33.8568C436.41 32.8001 436.054 32.0884 435.342 31.7218C434.63 31.3337 433.606 31.1396 432.269 31.1396H428.129V36.7033H432.237ZM442.103 39V21.6618H444.949V39H442.103Z" fill="black"/>
</svg>
