<svg width="48" height="48" viewBox="0 0 48 48" fill="none" xmlns="http://www.w3.org/2000/svg">
<rect x="0.5" y="0.5" width="47" height="47" rx="23.5" fill="black"/>
<rect x="0.5" y="0.5" width="47" height="47" rx="23.5" stroke="white"/>
<path d="M23.5 12.875H19.625C17.4849 12.875 15.75 14.6099 15.75 16.75C15.75 18.8901 17.4849 20.625 19.625 20.625M23.5 12.875V20.625M23.5 12.875H27.375C29.5152 12.875 31.25 14.6099 31.25 16.75C31.25 18.8901 29.5152 20.625 27.375 20.625M19.625 20.625H23.5M19.625 20.625C17.4849 20.625 15.75 22.3598 15.75 24.5C15.75 26.6402 17.4849 28.375 19.625 28.375M23.5 20.625H27.375M23.5 20.625V28.375M27.375 20.625C29.5152 20.625 31.25 22.3598 31.25 24.5C31.25 26.6402 29.5152 28.375 27.375 28.375C25.2348 28.375 23.5 26.6402 23.5 24.5C23.5 22.3598 25.2348 20.625 27.375 20.625ZM23.5 28.375H19.625M23.5 28.375V32.25C23.5 34.3902 21.7652 36.125 19.625 36.125C17.4849 36.125 15.75 34.3902 15.75 32.25C15.75 30.1098 17.4849 28.375 19.625 28.375" stroke="white" stroke-width="2.58333" stroke-linecap="round" stroke-linejoin="round"/>
</svg>
