<svg width="48" height="48" viewBox="0 0 48 48" fill="none" xmlns="http://www.w3.org/2000/svg">
<rect x="0.5" y="0.5" width="47" height="47" rx="23.5" fill="black"/>
<rect x="0.5" y="0.5" width="47" height="47" rx="23.5" stroke="white"/>
<path d="M17.7663 24.17L17.4088 25.7512C17.3951 25.8337 17.2988 25.9025 17.2026 25.9025H16.7626C16.7626 25.9025 16.7076 25.93 16.6938 25.9575C16.2951 27.3187 15.7451 28.2675 15.0301 28.8312C14.4113 29.3125 13.6551 29.5325 12.6513 29.5325C11.7438 29.5325 11.1388 29.2437 10.6163 28.6662C9.92881 27.91 9.65381 26.6587 9.81881 25.16C10.1213 22.3412 11.5926 19.495 14.4113 19.495C15.2638 19.495 15.9376 19.7562 16.4051 20.2787C16.9001 20.8425 17.1476 21.6812 17.1476 22.7812C17.1476 22.8775 17.0651 22.96 16.9688 22.96H14.9063C14.8376 22.96 14.7688 22.8912 14.7688 22.8225C14.7551 22.0662 14.5213 21.695 14.0813 21.695C13.2838 21.695 12.8301 22.7675 12.5826 23.3587C12.2388 24.1837 12.0601 25.0912 12.1013 25.9987C12.1151 26.4112 12.1838 27.0025 12.5826 27.25C12.9401 27.47 13.4351 27.3187 13.7376 27.085C14.0401 26.8512 14.2876 26.425 14.3838 26.0537C14.3976 25.9987 14.3976 25.9575 14.3838 25.9437C14.3701 25.93 14.3288 25.9162 14.3013 25.9162H13.7651C13.7651 25.9162 13.6551 25.8887 13.6138 25.8475C13.5863 25.82 13.5726 25.765 13.5863 25.7237L13.9438 24.1562C13.9576 24.0737 14.0401 24.0187 14.1226 24.005H17.6013C17.6013 24.005 17.6151 24.005 17.6288 24.005C17.7251 24.005 17.7801 24.1012 17.7801 24.1975L17.7663 24.17Z" fill="white"/>
<path d="M23.7475 22.3688C23.7475 22.465 23.665 22.5475 23.5687 22.5475H21.6712C21.5475 22.5475 21.4375 22.4513 21.4375 22.3275C21.4375 21.7775 21.245 21.5025 20.86 21.5025C20.475 21.5025 20.2137 21.75 20.2137 22.1625C20.2137 22.63 20.475 23.0563 21.2312 23.785C22.2212 24.72 22.62 25.545 22.6062 26.645C22.5787 28.4188 21.3687 29.56 19.54 29.56C18.605 29.56 17.89 29.3125 17.4225 28.8175C16.9412 28.3225 16.7212 27.58 16.7625 26.6313C16.7625 26.535 16.845 26.4525 16.9412 26.4525H18.9075C18.9075 26.4525 19.0175 26.48 19.045 26.5213C19.0725 26.5625 19.0862 26.6038 19.0862 26.645C19.0587 26.9888 19.1275 27.2363 19.265 27.3875C19.3475 27.4838 19.4712 27.525 19.6225 27.525C19.98 27.525 20.2 27.2638 20.2 26.8238C20.2 26.4388 20.09 26.095 19.4162 25.4075C18.55 24.5688 17.78 23.7025 17.8075 22.3413C17.8212 21.5438 18.1375 20.8288 18.6875 20.3063C19.2787 19.7563 20.0762 19.4675 21.0112 19.4675C21.9462 19.4675 22.6612 19.7425 23.115 20.265C23.555 20.76 23.7612 21.475 23.7475 22.3825V22.3688Z" fill="white"/>
<path d="M29.6462 29.2163V19.8113C29.6599 19.715 29.5774 19.6325 29.4812 19.6325H26.5387C26.4424 19.6325 26.4012 19.715 26.3737 19.77L22.1112 29.1475C22.0699 29.2575 22.1524 29.3813 22.2762 29.3813H24.3387C24.4487 29.3813 24.5174 29.3538 24.5587 29.2713L24.9712 28.295C25.0262 28.1713 25.0262 28.1575 25.1774 28.1575H27.1437C27.2812 28.1575 27.2812 28.1575 27.2812 28.295L27.2399 29.2025C27.2399 29.2988 27.3224 29.3813 27.4187 29.3813H29.4949C29.4949 29.3813 29.5912 29.3538 29.6324 29.3263C29.6599 29.2988 29.6737 29.2438 29.6737 29.2025L29.6462 29.2163ZM26.0024 26.0813C26.0024 26.0813 25.9749 26.0813 25.9612 26.0813C25.9337 26.0813 25.9199 26.0538 25.9199 26.0263C25.9199 26.0125 25.9199 25.9988 25.9337 25.9713L27.4049 22.3275C27.4049 22.3275 27.4324 22.2588 27.4462 22.2175C27.4737 22.1625 27.5012 22.1625 27.5149 22.2038C27.5149 22.2313 27.3499 25.9438 27.3499 25.9438C27.3362 26.0813 27.3362 26.095 27.1987 26.095H26.0162V26.0813H26.0024Z" fill="white"/>
<path d="M33.8263 19.6325H32.2588C32.1763 19.6325 32.08 19.6738 32.0663 19.77L29.8938 29.2025C29.8938 29.2025 29.8938 29.285 29.9213 29.3263C29.9625 29.3675 30.0176 29.395 30.0726 29.395H32.0251C32.1351 29.395 32.2038 29.34 32.2175 29.2575L32.4513 28.185C32.465 28.1025 32.4513 28.0338 32.3688 27.9925C32.3276 27.9788 32.3001 27.9513 32.2588 27.9375L31.9151 27.7588L31.585 27.58L31.4613 27.5113C31.4613 27.5113 31.4201 27.4838 31.4338 27.4563C31.4338 27.415 31.4613 27.3875 31.5025 27.3875H32.575C32.8913 27.3875 33.2213 27.3738 33.5238 27.3188C35.7376 26.9063 37.2088 25.1325 37.25 22.7263C37.2913 20.6638 36.1363 19.6188 33.84 19.6188L33.8263 19.6325ZM33.2901 25.2425H33.2488C33.1525 25.2425 33.1388 25.2425 33.1388 25.2425L33.7575 22.52C33.7713 22.4375 33.7713 22.3963 33.7301 22.3688C33.6613 22.3413 32.7675 21.86 32.7675 21.86C32.74 21.86 32.7263 21.8325 32.74 21.805C32.74 21.7638 32.7675 21.7363 32.8088 21.7363H34.2388C34.6788 21.7363 34.9263 22.1488 34.9125 22.8225C34.8988 23.9913 34.335 25.215 33.3038 25.2563L33.2901 25.2425Z" fill="white"/>
</svg>
