<svg width="48" height="48" viewBox="0 0 48 48" fill="none" xmlns="http://www.w3.org/2000/svg">
<rect width="48" height="48" rx="24" fill="black"/>
<rect x="12.6875" y="11.6875" width="23.625" height="23.625" fill="white"/>
<path d="M27.0312 31.3365L28.7707 30.1855C28.907 30.6138 29.7702 31.6309 30.8606 31.6309C31.951 31.6309 32.4572 31.0354 32.4572 30.6405C32.4572 29.5646 31.3438 29.1852 30.809 29.003C30.7219 28.9733 30.6501 28.9489 30.601 28.9275C30.5758 28.9165 30.5377 28.902 30.4888 28.8833C29.8941 28.6561 27.6998 27.8177 27.6998 25.3876C27.6998 22.7109 30.2829 22.4031 30.8671 22.4031C31.2492 22.4031 33.0868 22.45 34.0019 24.1697L32.3144 25.3475C31.9445 24.598 31.3298 24.3504 30.9514 24.3504C30.0168 24.3504 29.8221 25.0356 29.8221 25.3475C29.8221 26.2226 30.8375 26.6149 31.6949 26.9461C31.9193 27.0327 32.1328 27.1152 32.3144 27.201C33.249 27.6427 34.625 28.3654 34.625 30.6405C34.625 31.7801 33.6692 33.625 31.263 33.625C28.0308 33.625 27.174 31.6844 27.0312 31.3365Z" fill="black"/>
<path d="M18.5938 31.565L20.4067 30.4147C20.5488 30.8427 21.1008 31.6319 21.9017 31.6319C22.7026 31.6319 23.1126 30.8093 23.1126 30.4147V22.6563H25.3422V30.4147C25.3783 31.4848 24.7848 33.625 22.1655 33.625C19.7573 33.625 18.7561 32.1937 18.5938 31.565Z" fill="black"/>
</svg>
