<svg width="48" height="48" viewBox="0 0 48 48" fill="none" xmlns="http://www.w3.org/2000/svg">
<rect x="0.5" y="0.5" width="47" height="47" rx="23.5" fill="black"/>
<rect x="0.5" y="0.5" width="47" height="47" rx="23.5" stroke="white"/>
<path d="M25.0992 11.1551C24.4338 10.7808 23.5663 10.7825 22.9002 11.1551C19.5646 12.9959 16.2289 14.8373 12.8926 16.6772C12.2435 17.0188 11.8056 17.7159 11.8126 18.4395V29.562C11.8079 30.2997 12.2683 31.0036 12.9343 31.3404C13.8925 31.8503 14.8236 32.4118 15.7992 32.8877C16.9261 33.4415 18.336 33.5639 19.4767 32.9864C20.4027 32.5078 20.814 31.4433 20.8128 30.465C20.8203 26.7943 20.814 23.1235 20.8157 19.4528C20.8377 19.2896 20.7152 19.1153 20.5373 19.1192C20.111 19.1125 19.6841 19.1153 19.2579 19.1181C19.0968 19.1028 18.9396 19.2366 18.9517 19.3986C18.946 23.0456 18.9529 26.6938 18.9483 30.3414C18.9576 30.846 18.6167 31.3309 18.1304 31.5013C17.0074 31.895 13.8019 29.8137 13.8019 29.8137C13.6842 29.7592 13.6095 29.6316 13.621 29.5049C13.621 25.8353 13.6216 22.1656 13.621 18.4966C13.6049 18.3487 13.696 18.2154 13.8319 18.155C17.1566 16.3251 20.4795 14.4905 23.8042 12.6594C23.9196 12.5823 24.0806 12.5826 24.1958 12.66C27.5205 14.4905 30.844 16.3234 34.1693 18.1535C34.3056 18.2138 34.3928 18.3492 34.379 18.4966C34.3784 22.1656 34.3801 25.8353 34.3778 29.5043C34.3877 29.6342 34.3206 29.76 34.1993 29.817C30.9057 31.6371 27.5746 33.3984 24.3108 35.2713C24.1684 35.353 24.0071 35.4456 23.8475 35.3556C22.9892 34.8808 22.1413 34.3876 21.2859 33.9083C21.1929 33.8502 21.0745 33.8253 20.9774 33.8902C20.5938 34.0923 20.2332 34.2561 19.7927 34.4304C19.1741 34.6753 19.273 34.7754 19.8308 35.1004C20.8313 35.6666 21.8334 36.2305 22.8337 36.7973C23.4923 37.2083 24.3772 37.2375 25.057 36.8577C28.3933 35.0192 31.7284 33.1785 35.0652 31.34C35.7294 31.0013 36.1921 30.3002 36.1874 29.5619V18.4395C36.1938 17.7306 35.7727 17.0459 35.1431 16.6993C31.7959 14.8495 28.447 13.0037 25.0992 11.1551Z" fill="white"/>
<path d="M30.133 19.5059C28.8236 18.8053 27.2659 18.768 25.8108 18.8596C24.7596 18.9634 23.654 19.2535 22.8881 20.0071C22.1026 20.7646 21.9316 21.9878 22.3047 22.9767C22.5721 23.6755 23.2451 24.1299 23.9411 24.3703C24.8377 24.6868 25.7793 24.7847 26.7212 24.8825C27.5803 24.9718 28.4397 25.0612 29.2655 25.3164C29.6028 25.4282 29.9956 25.5992 30.0989 25.9662C30.1943 26.4008 30.0897 26.906 29.7368 27.208C28.6159 28.0952 25.498 27.9592 24.3905 27.261C23.9428 26.9635 23.7499 26.4369 23.6714 25.9351C23.6627 25.7787 23.5368 25.6353 23.367 25.6472C22.9419 25.6421 22.5167 25.6433 22.0916 25.6466C21.9432 25.6342 21.789 25.7397 21.7808 25.8911C21.6935 28.1895 23.8044 29.1915 25.7849 29.4122C26.9164 29.52 28.0727 29.5138 29.1869 29.271C30.0245 29.0803 30.8643 28.7292 31.4408 28.084C32.1518 27.3 32.2916 26.1327 31.9727 25.1561C31.729 24.4274 31.0323 23.96 30.3202 23.7195C29.3518 23.3875 28.2041 23.209 27.327 23.1254C26.0521 23.004 24.5371 23.0536 24.1762 22.2158C24.0324 21.7772 24.1548 21.2325 24.5579 20.9627C25.6245 20.2392 27.7952 20.3353 28.8999 20.8758C29.4071 21.1298 29.701 21.6513 29.8223 22.178C29.8447 22.3327 29.9488 22.4941 30.1279 22.4873C30.5501 22.4957 30.9724 22.4896 31.3945 22.4901C31.5396 22.5003 31.6984 22.4184 31.7267 22.27C31.7088 21.1693 31.1468 20.0427 30.133 19.5059Z" fill="white"/>
</svg>
