<svg width="48" height="48" viewBox="0 0 48 48" fill="none" xmlns="http://www.w3.org/2000/svg">
<rect x="0.5" y="0.5" width="47" height="47" rx="23.5" fill="black"/>
<rect x="0.5" y="0.5" width="47" height="47" rx="23.5" stroke="white"/>
<path d="M9 18.375V27.75H17.4375V29.625H24V27.75H39V18.375H9Z" fill="#353535"/>
<path d="M14.1207 20.25H10.875V25.875H14.1207V21.7604H15.772V25.875H17.4233V20.25H14.1207ZM19.0746 20.25V27.75H22.3772V25.875H25.6228V20.25H19.0746ZM23.9715 24.3646H22.3772V21.7604H23.9715V24.3646ZM30.5198 20.25H27.2741V25.875H30.5198V21.7604H32.1711V25.875H33.8224V21.7604H35.4737V25.875H37.125V20.25H30.5198Z" fill="white"/>
</svg>
