<svg width="48" height="48" viewBox="0 0 48 48" fill="none" xmlns="http://www.w3.org/2000/svg">
<rect width="48" height="48" rx="24" fill="black"/>
<path d="M26.0952 24.4767C26.0952 23.0871 24.9333 21.9605 23.5 21.9605C22.0668 21.9605 20.9048 23.0871 20.9048 24.4767C20.9048 25.8664 22.0668 26.993 23.5 26.993C24.9333 26.993 26.0952 25.8664 26.0952 24.4767Z" fill="white"/>
<path fill-rule="evenodd" clip-rule="evenodd" d="M31.9285 19.8051C32.4766 17.6459 33.1654 13.6417 30.7369 12.2842C28.3198 10.9326 25.1744 13.5225 23.5135 15.0771C21.8574 13.538 18.6236 10.9592 16.1972 12.321C13.781 13.6771 14.5261 17.6149 15.0863 19.7877C12.8324 20.4084 8.96875 21.7453 8.96875 24.4767C8.96875 27.2003 12.8284 28.6548 15.0689 29.2749C14.5067 31.4597 13.7989 35.3412 16.2182 36.6943C18.6536 38.0559 21.8774 35.5384 23.5536 33.9668C25.2252 35.5306 28.3405 38.0645 30.758 36.7076C33.1833 35.3464 32.5516 31.3959 31.9914 29.2105C34.1633 28.5891 38.0313 27.1663 38.0313 24.4767C38.0313 21.7715 34.1469 20.4238 31.9285 19.8051ZM31.6532 28.0524C31.2854 26.9234 30.7889 25.7229 30.1816 24.4826C30.7613 23.2717 31.2384 22.0867 31.596 20.9649C33.2223 21.4221 36.7898 22.4669 36.7898 24.4767C36.7898 26.5053 33.3664 27.56 31.6532 28.0524ZM30.1359 35.6658C28.3322 36.6782 25.6527 34.255 24.4182 33.1034C25.2371 32.2349 26.0556 31.2253 26.8543 30.1042C28.2593 29.9833 29.5867 29.7857 30.7904 29.5159C31.1847 31.0617 31.9477 34.6489 30.1359 35.6658ZM16.8385 35.6514C15.0345 34.6428 15.8591 31.1792 16.2727 29.5698C17.4631 29.8251 18.7808 30.0088 20.1892 30.1195C20.9932 31.2166 21.8353 32.2249 22.6839 33.108C21.6354 34.0914 18.6509 36.6646 16.8385 35.6514ZM10.2102 24.4767C10.2102 22.4404 13.7564 21.4032 15.4197 20.9472C15.7834 22.0941 16.2605 23.2933 16.8362 24.506C16.253 25.7367 15.7692 26.955 15.4021 28.1153C13.8161 27.6752 10.2102 26.5142 10.2102 24.4767ZM16.8192 13.3628C18.6306 12.3462 21.4411 14.822 22.6435 15.9364C21.7993 16.8154 20.9649 17.8162 20.1678 18.9069C18.801 19.0297 17.4925 19.227 16.2897 19.4913C15.8384 17.7388 15.0098 14.3783 16.8192 13.3628ZM27.7424 20.2153C28.6698 20.3288 29.5581 20.4797 30.3924 20.6644C30.1419 21.4427 29.8298 22.2565 29.4622 23.0908C28.9293 22.1104 28.3572 21.1497 27.7424 20.2153ZM23.5139 16.7966C24.0865 17.3981 24.66 18.0697 25.2242 18.7984C24.0798 18.746 22.9336 18.7457 21.7892 18.7976C22.3539 18.0757 22.9323 17.405 23.5139 16.7966ZM17.5485 23.0899C17.1869 22.2585 16.8776 21.441 16.625 20.6517C17.4542 20.4717 18.3385 20.3247 19.2598 20.2131C18.6433 21.1454 18.0722 22.1057 17.5485 23.0899ZM19.2863 28.8262C18.3345 28.7232 17.4368 28.5836 16.6079 28.4087C16.8645 27.6053 17.1806 26.7703 17.5499 25.921C18.0808 26.9154 18.6606 27.885 19.2863 28.8262ZM23.5482 32.2418C22.9598 31.6261 22.3729 30.9452 21.7996 30.2128C22.9506 30.2566 24.1037 30.2567 25.2544 30.2069C24.6885 30.9527 24.117 31.6346 23.5482 32.2418ZM29.474 25.8777C29.8625 26.7362 30.1899 27.5668 30.45 28.3565C29.6073 28.543 28.6975 28.6931 27.7389 28.8046C28.3583 27.8526 28.9394 26.8769 29.474 25.8777ZM26.1614 28.9505C24.4011 29.0725 22.6296 29.0712 20.8687 28.9605C19.868 27.5433 18.9773 26.0529 18.2084 24.5056C18.9736 22.9615 19.8578 21.474 20.8538 20.0591C22.6161 19.9299 24.3891 19.9296 26.1514 20.0598C27.1387 21.4747 28.0216 22.9583 28.8046 24.4885C28.0309 26.0318 27.142 27.5223 26.1614 28.9505ZM30.1169 13.327C31.9287 14.3403 31.1222 17.9389 30.7264 19.5037C29.5207 19.234 28.2114 19.0332 26.8405 18.9085C26.0419 17.806 25.2145 16.8035 24.3839 15.9358C25.6017 14.7974 28.3225 12.3237 30.1169 13.327Z" fill="white"/>
</svg>
