<svg width="48" height="48" viewBox="0 0 48 48" fill="none" xmlns="http://www.w3.org/2000/svg">
<rect x="0.5" y="0.5" width="47" height="47" rx="23.5" fill="black"/>
<rect x="0.5" y="0.5" width="47" height="47" rx="23.5" stroke="white"/>
<path fill-rule="evenodd" clip-rule="evenodd" d="M29.2181 11.1941C30.8962 11.51 32.5795 12.2867 33.3956 13.8848C34.2365 15.5315 34.1484 17.1337 33.4492 18.4826C32.7884 19.7578 31.6374 20.7109 30.4774 21.3511C29.309 21.9961 27.9919 22.4018 26.8373 22.4812C26.2625 22.5207 25.6581 22.4844 25.1091 22.3022C24.5565 22.1188 23.9486 21.7449 23.6116 21.0429C23.2903 20.3742 23.5572 19.5644 24.2077 19.2341C24.8178 18.9244 25.5485 19.1466 25.9019 19.7271C25.9063 19.7286 25.9109 19.7302 25.9158 19.7319C26.0455 19.7749 26.2912 19.8119 26.6619 19.7864C27.3984 19.7357 28.3543 19.4575 29.2348 18.9715C30.1237 18.4809 30.7974 17.8559 31.1309 17.2126C31.426 16.643 31.5017 15.9864 31.0697 15.1403C30.8065 14.6247 30.1009 14.1061 28.745 13.8508C27.434 13.604 25.7706 13.6615 24.0629 14.0267C22.3597 14.391 20.6961 15.0436 19.3774 15.9128C18.0458 16.7905 17.1779 17.8116 16.8444 18.8698C16.4837 20.0146 16.6115 20.8203 16.9364 21.482C17.2927 22.2078 17.9452 22.8801 18.8451 23.5997C19.2806 23.9481 19.743 24.2841 20.2303 24.6383L20.2568 24.6577C20.7439 25.0116 21.258 25.3858 21.7386 25.776C22.1433 26.1045 22.5567 26.4691 22.9353 26.8794C24.634 26.5426 26.1058 26.5792 27.3118 27.1464C28.8647 27.8765 29.6432 29.3156 30.0094 30.9443C30.1728 31.671 29.7323 32.3962 29.0255 32.5642C28.3187 32.7322 27.6134 32.2792 27.45 31.5526C27.1872 30.3832 26.7577 29.8557 26.2193 29.6025C25.8246 29.417 25.2351 29.3112 24.3577 29.3932C25.1668 32.3173 23.7541 34.9654 22.0246 36.4654C21.093 37.2735 19.9524 37.8624 18.8122 37.9794C17.6197 38.1019 16.3456 37.6907 15.598 36.4107C14.9378 35.2806 14.9325 34.0788 15.2769 33.0087C15.6082 31.9793 16.2626 31.0526 16.9795 30.2856C17.8805 29.3214 19.0139 28.4701 20.0886 27.8779C19.6774 27.5453 19.2274 27.217 18.7404 26.863L18.6938 26.8292C18.2214 26.4859 17.7159 26.1186 17.232 25.7315C16.2455 24.9425 15.2155 23.9707 14.5911 22.6989C13.9353 21.3629 13.7845 19.817 14.3453 18.0374C14.9334 16.1713 16.3361 14.7092 17.9596 13.6391C19.5959 12.5605 21.5718 11.8008 23.5279 11.3824C25.4795 10.965 27.495 10.8697 29.2181 11.1941ZM21.7971 30.0195C20.9129 30.4321 19.7629 31.2055 18.8738 32.1567C18.3095 32.7607 17.9346 33.3485 17.7709 33.8572C17.6203 34.3253 17.6543 34.6852 17.85 35.0202C17.9584 35.2056 18.1243 35.3358 18.5513 35.2919C19.0306 35.2427 19.6888 34.9579 20.3307 34.4012C21.5593 33.3355 22.3031 31.6872 21.7971 30.0195Z" fill="white"/>
</svg>
