<svg width="48" height="48" viewBox="0 0 48 48" fill="none" xmlns="http://www.w3.org/2000/svg">
<rect x="0.5" y="0.5" width="47" height="47" rx="23.5" fill="black"/>
<rect x="0.5" y="0.5" width="47" height="47" rx="23.5" stroke="white"/>
<path fill-rule="evenodd" clip-rule="evenodd" d="M23.5 17C20.1663 17 18.0837 18.6662 17.25 22C18.5 20.3338 19.9587 19.7088 21.625 20.125C22.5763 20.3627 23.2563 21.0531 24.0075 21.8164C25.2338 23.0601 26.6525 24.5 29.75 24.5C33.0837 24.5 35.1663 22.8338 36 19.5C34.75 21.1662 33.2925 21.7912 31.625 21.375C30.6737 21.1373 29.9937 20.4469 29.2413 19.6836C28.0163 18.4386 26.5988 17 23.5 17ZM17.25 24.5C13.9162 24.5 11.8338 26.1662 11 29.5C12.25 27.8325 13.7088 27.2088 15.375 27.625C16.3263 27.8627 17.0062 28.5531 17.7587 29.3164C18.9838 30.5601 20.4025 32 23.5013 32C26.835 32 28.9175 30.3338 29.7512 27C28.5012 28.6662 27.0425 29.2912 25.3763 28.875C24.425 28.6373 23.745 27.9469 22.9938 27.1836C21.7663 25.9399 20.3475 24.5 17.25 24.5Z" fill="white"/>
</svg>
