<svg width="48" height="48" viewBox="0 0 48 48" fill="none" xmlns="http://www.w3.org/2000/svg">
<rect x="0.5" y="0.5" width="47" height="47" rx="23.5" fill="black"/>
<rect x="0.5" y="0.5" width="47" height="47" rx="23.5" stroke="white"/>
<path d="M12 12H36V36H12V12ZM26.28 31.8133C26.6714 32.5539 27.2686 33.1657 27.9995 33.5749C28.7304 33.9841 29.564 34.1734 30.4 34.12C32.5333 34.12 34.1333 33.0133 34.1333 30.9733C34.1333 28.9333 33.0533 28.3067 31.1333 27.4267L30.5733 27.1867C29.6 26.7733 29.24 26.4933 29.24 25.8533C29.2412 25.7166 29.2709 25.5817 29.327 25.4571C29.3831 25.3324 29.4645 25.2208 29.5661 25.1293C29.6676 25.0378 29.7871 24.9684 29.9169 24.9255C30.0466 24.8825 30.1839 24.8671 30.32 24.88C30.6322 24.8766 30.9381 24.9678 31.1975 25.1415C31.4569 25.3152 31.6576 25.5634 31.7733 25.8533L33.52 24.6933C33.2176 24.1179 32.7536 23.6435 32.185 23.3284C31.6165 23.0133 30.9682 22.8714 30.32 22.92C29.9037 22.8793 29.4835 22.9257 29.0861 23.0562C28.6887 23.1868 28.3228 23.3986 28.0117 23.6783C27.7007 23.958 27.4513 24.2994 27.2794 24.6807C27.1075 25.0621 27.0169 25.4751 27.0133 25.8933C27.0133 27.7333 28.0933 28.56 29.68 29.2933L30.24 29.5333C31.28 29.9867 31.8933 30.2667 31.8933 31.04C31.8933 31.8133 31.2933 32.1467 30.36 32.1467C29.901 32.1564 29.4486 32.0365 29.0547 31.8006C28.6608 31.5647 28.3415 31.2226 28.1333 30.8133L26.2933 31.88M25.3333 23H18.6667V25H20.6667V34.6667H23V25H25.3333V23Z" fill="white"/>
</svg>
